<svg xmlns="http://www.w3.org/2000/svg" width="65.484" height="65.484" viewBox="0 0 65.484 65.484"><path d="M59.425,35.955a7.674,7.674,0,1,0-11.146.015,11.562,11.562,0,0,0-5.513,6.945,13.522,13.522,0,0,0-3.809-3,9.573,9.573,0,0,0,.01-14.586,13.429,13.429,0,1,0-12.451,0,9.573,9.573,0,0,0,.01,14.586,13.482,13.482,0,0,0-3.809,3A11.562,11.562,0,0,0,17.2,35.971a7.674,7.674,0,1,0-11.146-.016A11.506,11.506,0,0,0,0,46.043v9.72a1.919,1.919,0,0,0,1.918,1.918H19.313v5.883a1.919,1.919,0,0,0,1.918,1.918H44.253a1.919,1.919,0,0,0,1.918-1.918V57.682H63.565a1.919,1.919,0,0,0,1.918-1.918v-9.72A11.507,11.507,0,0,0,59.425,35.955Zm-47.787-9.1A3.837,3.837,0,1,1,7.8,30.7,3.841,3.841,0,0,1,11.639,26.859Zm7.674,26.987H3.837v-7.8a7.738,7.738,0,0,1,15.476,0ZM23.15,13.429a9.592,9.592,0,1,1,9.592,9.592A9.6,9.6,0,0,1,23.15,13.429Zm9.592,24.94A5.755,5.755,0,1,1,38.5,32.614,5.762,5.762,0,0,1,32.742,38.369Zm3.281,4.423-3.28,2.688-3.277-2.69a9.477,9.477,0,0,1,6.557,0Zm6.311,18.854H23.15v-9.72a9.753,9.753,0,0,1,2.912-6.966l5.463,4.484a1.919,1.919,0,0,0,2.433,0l5.468-4.481a9.753,9.753,0,0,1,2.908,6.962ZM53.845,26.859A3.837,3.837,0,1,1,50.008,30.7,3.841,3.841,0,0,1,53.845,26.859Zm7.8,26.987H46.171v-7.8a7.738,7.738,0,0,1,15.476,0Z" fill="#0971b8"/><g transform="translate(30.823 7.674)"><path d="M246.755,63.837h-1.919V61.918a1.918,1.918,0,0,0-3.837,0v3.837a1.919,1.919,0,0,0,1.919,1.918h3.837a1.918,1.918,0,0,0,0-3.837Z" transform="translate(-241 -60)" fill="#0971b8"/></g></svg>