<svg xmlns="http://www.w3.org/2000/svg" width="53" height="52.967" viewBox="0 0 53 52.967">
  <path id="technical-support_1_" data-name="technical-support (1)" d="M49.17,20.4V15.756A11.489,11.489,0,0,0,43.258,5.721a4.515,4.515,0,0,0-3.6-4.139,61.521,61.521,0,0,0-26.314,0,4.515,4.515,0,0,0-3.6,4.139A11.587,11.587,0,0,0,5.6,9.653a11.424,11.424,0,0,0-1.765,6.1V20.4A9.207,9.207,0,0,0,0,27.868v3.416A9.223,9.223,0,0,0,9.213,40.5h.625a1.552,1.552,0,0,0,3-.564V19.219a1.552,1.552,0,0,0-3-.564H9.213a9.2,9.2,0,0,0-2.277.285V15.756a8.345,8.345,0,0,1,3.68-6.93,4.651,4.651,0,0,0,.771.809,4.472,4.472,0,0,0,2.871,1.046,4.7,4.7,0,0,0,.892-.086,57.984,57.984,0,0,1,22.7,0,4.48,4.48,0,0,0,3.763-.959,4.657,4.657,0,0,0,.77-.809,8.379,8.379,0,0,1,3.68,6.929V18.94a9.2,9.2,0,0,0-2.277-.285h-.625a1.552,1.552,0,0,0-3,.564V39.933a1.552,1.552,0,0,0,3,.564h.625a9.2,9.2,0,0,0,2.247-.278,7.358,7.358,0,0,1-7.319,6.7H32.858a4.666,4.666,0,0,0-4.391-3.105H24.43a4.658,4.658,0,1,0,0,9.316h4.037a4.666,4.666,0,0,0,4.391-3.105h5.857A10.467,10.467,0,0,0,49.17,39.565v-.809A9.207,9.207,0,0,0,53,31.284V27.868A9.207,9.207,0,0,0,49.17,20.4ZM9.73,21.76V37.391H9.213a6.114,6.114,0,0,1-6.107-6.107V27.868A6.114,6.114,0,0,1,9.213,21.76ZM40.164,6.123A1.449,1.449,0,0,1,38.44,7.546a61,61,0,0,0-23.88,0,1.449,1.449,0,0,1-1.724-1.423V6.037a1.421,1.421,0,0,1,1.149-1.418,58.52,58.52,0,0,1,25.029,0,1.421,1.421,0,0,1,1.15,1.418Zm-11.7,43.9H24.43a1.553,1.553,0,0,1,0-3.105h4.037a1.553,1.553,0,1,1,0,3.105ZM49.895,31.284a6.114,6.114,0,0,1-6.107,6.107H43.27V21.76h.517a6.114,6.114,0,0,1,6.107,6.107Z" transform="translate(0 -0.158)" fill="#fff"/>
</svg>
