<?xml version="1.0" encoding="UTF-8"?>
<!DOCTYPE svg PUBLIC "-//W3C//DTD SVG 1.1//EN" "http://www.w3.org/Graphics/SVG/1.1/DTD/svg11.dtd">
<!-- Creator: CorelDRAW 2020 (64-Bit) -->
<svg xmlns="http://www.w3.org/2000/svg" xml:space="preserve" width="137.054mm" height="42.0806mm" version="1.1" style="shape-rendering:geometricPrecision; text-rendering:geometricPrecision; image-rendering:optimizeQuality; fill-rule:evenodd; clip-rule:evenodd"
viewBox="0 0 13723 4213.47"
 xmlns:xlink="http://www.w3.org/1999/xlink"
 xmlns:xodm="http://www.corel.com/coreldraw/odm/2003">
 <defs>
  <style type="text/css">
   <![CDATA[
    .fil4 {fill:#4697CA;fill-rule:nonzero}
    .fil6 {fill:#47A03D;fill-rule:nonzero}
    .fil5 {fill:#FCC917;fill-rule:nonzero}
    .fil3 {fill:#FA803D;fill-rule:nonzero}
    .fil2 {fill:#9E4DAB;fill-rule:nonzero}
    .fil0 {fill:#545454;fill-rule:nonzero}
    .fil1 {fill:#A3A19E;fill-rule:nonzero}
   ]]>
  </style>
 </defs>
 <g id="Layer_x0020_1">
  <metadata id="CorelCorpID_0Corel-Layer"/>
  <path class="fil0" d="M4250.52 1362.35c17.23,19.74 36.66,39.74 58.2,60.09 21.59,20.32 45.92,38.53 73.05,54.54 27.09,16.04 57.32,28.97 90.61,38.84 33.27,9.86 69.62,14.76 109.07,14.76 81.35,0 144.83,-18.48 190.46,-55.46 45.57,-36.99 68.39,-86.89 68.39,-149.74 0,-67.79 -25.89,-118.63 -77.64,-152.54 -51.79,-33.87 -126.39,-61.31 -223.74,-82.29 -53.02,-11.1 -101.06,-26.48 -144.2,-46.22 -43.2,-19.69 -80.42,-44.36 -111.86,-73.95 -31.44,-29.56 -55.77,-63.78 -73.01,-102.59 -17.31,-38.84 -25.92,-82.89 -25.92,-132.21 0,-45.58 8.61,-88.7 25.92,-129.4 17.24,-40.69 43.1,-76.44 77.64,-107.25 34.47,-30.8 77.64,-55.45 129.43,-73.96 51.79,-18.47 111.51,-27.73 179.33,-27.73 60.37,0 112.47,6.5 156.24,19.42 43.73,12.93 81.03,28.65 111.83,47.12 30.8,18.47 55.45,37.62 73.96,57.33 18.47,19.71 32.64,35.78 42.52,48.07l-118.33 109.08c-7.42,-8.62 -18.47,-20.03 -33.27,-34.22 -14.8,-14.14 -33.59,-28.02 -56.41,-41.61 -22.78,-13.5 -49.27,-24.9 -79.47,-34.16 -30.2,-9.25 -65.03,-13.88 -104.48,-13.88 -39.46,0 -73.33,5.27 -101.7,15.68 -28.37,10.49 -51.75,24.06 -70.22,40.73 -18.51,16.63 -32.07,35.43 -40.66,56.37 -8.68,20.96 -13,41.9 -13,62.88 0,30.8 6.5,57 19.43,78.53 12.93,21.6 31.75,40.71 56.4,57.33 24.62,16.63 55.14,30.84 91.53,42.54 36.35,11.73 77.96,23.11 124.79,34.17 45.57,11.1 90.29,25.59 134.05,43.47 43.74,17.87 82.84,41.91 117.38,72.09 34.51,30.22 61.96,67.2 82.27,110.94 20.35,43.78 30.52,97.06 30.52,159.92 0,53.03 -11.08,101.69 -33.27,146.06 -22.18,44.4 -52.7,82.92 -91.52,115.55 -38.82,32.68 -84.74,57.95 -137.73,75.83 -53.02,17.84 -110.35,26.8 -171.95,26.8 -57.96,0 -110.63,-6.8 -158.07,-20.35 -47.47,-13.53 -90.61,-30.77 -129.43,-51.75 -38.85,-20.98 -72.76,-44.08 -101.69,-69.33 -28.97,-25.25 -52.71,-50.23 -71.21,-74.9l125.75 -114.63z"/>
  <path class="fil0" d="M5241.5 940.82l-155.31 0 0 -138.67 155.31 0 0 -281.03 166.41 0 0 281.03 251.42 0 0 138.67 -251.42 0 0 423.39c0,69.02 10.73,116.46 32.35,142.36 21.55,25.86 52.04,38.81 91.49,38.81 32.07,0 58.57,-4.9 79.51,-14.81 20.95,-9.82 41.89,-24.63 62.88,-44.36l75.8 101.69c-35.78,34.53 -72.44,59.47 -110.03,74.9 -37.58,15.39 -82.27,23.11 -134.01,23.11 -91.24,0 -158.11,-24.67 -200.64,-73.95 -42.49,-49.3 -63.76,-126.36 -63.76,-231.12l0 -440.02z"/>
  <path class="fil0" d="M6496.85 1157.14c-4.95,-66.59 -28.37,-123.25 -70.26,-170.09 -41.92,-46.85 -101.09,-70.28 -177.5,-70.28 -39.45,0 -74.85,6.81 -106.32,20.33 -31.41,13.6 -58.21,31.46 -80.4,53.64 -22.18,22.18 -39.45,47.78 -51.78,76.71 -12.34,28.98 -19.11,58.9 -20.32,89.7l506.57 0zm149.77 379.01c-9.89,11.1 -24.66,25.27 -44.41,42.52 -19.71,17.29 -45.28,33.91 -76.72,49.92 -31.4,16.03 -68.39,29.9 -110.91,41.59 -42.53,11.7 -90.93,17.55 -145.15,17.55 -66.59,0 -127.55,-11.06 -183,-33.28 -55.49,-22.19 -102.93,-53.6 -142.39,-94.28 -39.45,-40.66 -69.97,-89.34 -91.52,-146.05 -21.59,-56.67 -32.36,-119.56 -32.36,-188.58 0,-62.89 10.46,-121.75 31.44,-176.59 20.95,-54.81 50.51,-102.27 88.73,-142.36 38.22,-40.05 83.51,-71.78 135.88,-95.2 52.39,-23.43 110.03,-35.16 172.87,-35.16 73.96,0 137.45,14.21 190.46,42.53 52.99,28.39 96.39,65.95 130.31,112.8 33.91,46.84 58.85,100.45 74.89,160.85 16,60.41 24.05,123.26 24.05,188.59l-678.52 0c1.2,38.22 9.5,73.33 24.94,105.38 15.4,32.05 36.03,59.79 61.96,83.2 25.85,23.43 55.45,41.92 88.72,55.47 33.27,13.57 68.39,20.33 105.38,20.33 72.72,0 132.49,-12.33 179.33,-36.98 46.84,-24.63 80.71,-48.68 101.7,-72.1l94.31 99.84z"/>
  <path class="fil0" d="M7003.45 1475.11c19.68,16.04 48.08,31.46 85.03,46.22 36.98,14.81 83.19,22.22 138.68,22.22 41.89,0 80.43,-7.69 115.54,-23.11 35.15,-15.42 65.35,-36.99 90.57,-64.72 25.26,-27.73 44.69,-60.09 58.28,-97.06 13.57,-36.98 20.32,-77.64 20.32,-122.05 0,-41.87 -4.63,-81.33 -13.89,-118.32 -9.21,-36.98 -23.98,-69.61 -44.33,-97.99 -20.39,-28.34 -46.56,-50.86 -78.59,-67.48 -32.04,-16.63 -71.5,-24.97 -118.33,-24.97 -59.14,0 -109.72,16.35 -151.61,49.01 -41.89,32.67 -71.49,80.41 -88.72,143.28 -6.19,19.74 -9.89,40.98 -11.09,63.79 -1.24,22.8 -1.84,46.53 -1.84,71.16l0 220.01zm-164.56 -486.25c0,-38.17 0,-71.15 0,-98.89 0,-27.74 -0.64,-57.02 -1.84,-87.82l159.02 0 5.51 122c8.62,-11.06 20.99,-24.62 36.99,-40.66 16,-16 36.07,-31.43 60.09,-46.22 24.02,-14.81 52.03,-27.43 84.14,-37.92 32.04,-10.44 69.02,-15.69 110.91,-15.69 66.56,0 124.16,12.31 172.87,36.98 48.67,24.66 89.01,57.95 121.13,99.84 32.04,41.9 55.74,89.99 71.14,144.22 15.43,54.23 23.14,111.55 23.14,171.92 0,77.66 -13.25,144.86 -39.74,201.52 -26.53,56.71 -61.04,103.55 -103.53,140.54 -42.53,36.98 -90.01,64.4 -142.39,82.28 -52.42,17.87 -103.84,26.79 -154.4,26.79 -57.92,0 -104.44,-5.86 -139.59,-17.55 -35.12,-11.7 -68.07,-24.32 -98.88,-37.92l0 399.36 -164.56 0 0 -1042.77z"/>
  <path class="fil0" d="M7911.22 1445.56c30.8,30.79 67.79,55.47 110.91,73.95 43.13,18.49 93.08,27.74 149.77,27.74 55.45,0 101.69,-8.94 138.64,-26.8 36.99,-17.87 55.49,-45.91 55.49,-84.14 0,-19.7 -4.03,-36.67 -12.01,-50.84 -8.05,-14.15 -21.58,-26.81 -40.65,-37.93 -19.14,-11.05 -44.41,-21.25 -75.85,-30.49 -31.43,-9.24 -70.57,-19.41 -117.37,-30.52 -33.31,-7.38 -66.27,-17.25 -98.95,-29.57 -32.67,-12.32 -61.92,-28.66 -87.81,-48.98 -25.89,-20.36 -46.87,-44.99 -62.87,-73.96 -16.04,-28.97 -24.02,-63.77 -24.02,-104.47 0,-41.87 9.53,-78.58 28.65,-110.01 19.1,-31.42 44.69,-57.91 76.72,-79.48 32.04,-21.55 68.11,-37.9 108.2,-49.01 40.02,-11.07 81.63,-16.62 124.8,-16.62 72.69,0 135.24,9.55 187.63,28.66 52.39,19.11 98.31,45.92 137.76,80.41l-90.6 114.63c-25.89,-23.39 -58.25,-43.12 -97.07,-59.16 -38.82,-16 -84.14,-24.05 -135.88,-24.05 -52.99,0 -95.55,8.67 -127.58,25.91 -32.08,17.25 -48.04,45.61 -48.04,85.03 0,36.98 21.23,64.43 63.79,82.28 42.49,17.89 98.27,34.83 167.29,50.85 40.65,9.89 78.55,21.28 113.7,34.21 35.16,12.94 65.95,29.56 92.45,49.91 26.49,20.33 47.43,45.3 62.87,74.9 15.4,29.55 23.1,65.33 23.1,107.21 0,43.15 -9.88,81.06 -29.6,113.73 -19.71,32.67 -46.2,60.07 -79.47,82.28 -33.28,22.18 -71.5,38.8 -114.67,49.91 -43.13,11.07 -88.12,16.62 -134.93,16.62 -162.7,0 -284.71,-43.74 -366.09,-131.25l101.7 -110.93z"/>
  <path class="fil0" d="M9366.25 1162.65l-149.77 -465.9 -153.44 465.9 303.21 0zm-293.96 -733.97l308.73 0 451.14 1233.18 -305.08 0 -94.24 -282.88 -434.51 0 -94.31 282.88 -292.09 0 460.37 -1233.18z"/>
  <path class="fil0" d="M9930.11 428.68l264.36 0 0 449.25c28.37,-33.25 65.94,-58.85 112.82,-76.72 46.8,-17.82 94.27,-26.79 142.35,-26.79 99.82,0 179.61,29.56 239.38,88.74 59.81,59.17 89.69,146.68 89.69,262.52l0 536.19 -264.36 0 0 -495.49c0,-50.52 -12.96,-89.97 -38.85,-118.35 -25.85,-28.33 -60.41,-42.49 -103.5,-42.49 -28.4,0 -53.65,5.25 -75.84,15.69 -22.18,10.48 -40.65,24.35 -55.45,41.6 -14.8,17.28 -25.86,37.29 -33.27,60.09 -7.39,22.84 -11.09,47.16 -11.09,73.03l0 465.92 -266.23 0 0 -1233.18z"/>
  <path class="fil0" d="M11544.14 1136.78c0,-18.49 -3.67,-37.26 -11.05,-56.39 -7.42,-19.08 -18.51,-36.64 -33.28,-52.69 -14.8,-16 -33.3,-29.28 -55.49,-39.76 -22.18,-10.45 -48.71,-15.7 -79.51,-15.7 -30.8,0 -57.92,5.25 -81.34,15.7 -23.42,10.48 -42.81,23.76 -58.21,39.76 -15.44,16.05 -27.16,33.6 -35.15,52.69 -8.06,19.13 -12.02,37.9 -12.02,56.39l366.06 0zm232.95 430.77c-9.85,6.19 -24.65,16.35 -44.36,30.54 -19.72,14.17 -45.29,28.04 -76.73,41.6 -31.4,13.55 -68.74,25.55 -111.86,36.04 -43.14,10.46 -92.44,15.7 -147.9,15.7 -73.96,0 -140.52,-11.38 -199.65,-34.18 -59.17,-22.8 -109.43,-54.53 -150.69,-95.24 -41.32,-40.67 -72.76,-89.66 -94.31,-146.99 -21.58,-57.28 -32.35,-120.45 -32.35,-189.47 0,-60.41 10.17,-118.64 30.48,-174.72 20.35,-56.09 49.63,-105.07 87.85,-146.98 38.18,-41.91 85.06,-75.52 140.51,-100.77 55.46,-25.25 118.33,-37.9 188.59,-37.9 70.22,0 131.86,12.31 184.89,36.98 52.95,24.65 97.67,58.88 134.01,102.61 36.39,43.75 63.79,96.15 82.27,157.13 18.51,61.02 27.77,127.91 27.77,200.63l0 44.37 -617.52 0c1.2,46.84 21.87,87.82 61.93,122.94 40.05,35.15 95.22,52.71 165.48,52.71 69.02,0 125.12,-10.18 168.25,-30.54 43.13,-20.31 74.57,-37.87 94.28,-52.67l109.07 168.23z"/>
  <path class="fil0" d="M12435.3 1279.15c-6.18,-1.22 -17.87,-2.76 -35.12,-4.63 -17.3,-1.86 -36.98,-2.76 -59.17,-2.76 -73.96,0 -126.34,10.49 -157.15,31.42 -30.83,20.98 -46.24,50.54 -46.24,88.72 0,71.51 43.14,107.25 129.43,107.25 20.95,0 41.61,-3.37 61.92,-10.18 20.35,-6.76 38.19,-16.3 53.66,-28.63 15.37,-12.31 28.02,-27.74 37.87,-46.22 9.85,-18.49 14.8,-40.04 14.8,-64.71l0 -70.26zm0 301.35c-29.57,34.52 -66.87,61.02 -111.83,79.5 -45.04,18.49 -95.23,27.74 -150.72,27.74 -30.8,0 -63.16,-4.35 -97.06,-12.93 -33.91,-8.63 -65.31,-23.11 -94.28,-43.47 -28.97,-20.33 -53.02,-47.74 -72.09,-82.28 -19.14,-34.49 -28.65,-77.64 -28.65,-129.43 0,-50.5 10.17,-95.48 30.48,-134.95 20.35,-39.42 48.36,-72.39 84.14,-98.93 35.76,-26.49 77.93,-46.5 126.64,-60.09 48.7,-13.53 101.37,-20.32 158.06,-20.32 30.81,0 61.96,0.62 93.4,1.82 31.44,1.24 52.07,3.1 61.92,5.57l0 -18.49c0,-22.19 -4.63,-40.95 -13.88,-56.36 -9.22,-15.43 -21.55,-28.36 -36.99,-38.85 -15.4,-10.45 -32.95,-17.86 -52.67,-22.18 -19.71,-4.31 -40.65,-6.49 -62.87,-6.49 -59.17,0 -108.16,7.42 -146.98,22.19 -38.82,14.79 -71.81,31.46 -98.91,49.94l-109.08 -162.72c18.51,-13.55 39.42,-27.11 62.84,-40.66 23.42,-13.57 51.15,-25.91 83.22,-36.98 32.04,-11.11 68.11,-20.06 108.13,-26.81 40.05,-6.76 86.01,-10.16 137.76,-10.16 131.86,0 229.28,35.42 292.12,106.32 62.87,70.87 94.28,166.08 94.28,285.65l0 504.73 -249.56 0 -7.42 -81.36z"/>
  <path class="fil0" d="M13454.06 1033.27c-18.51,-11.1 -38.58,-19.1 -60.09,-24.05 -21.62,-4.93 -48.43,-7.41 -80.46,-7.41 -67.79,0 -120.49,22.84 -158.04,68.44 -37.65,45.61 -56.41,104.13 -56.41,175.61 0,62.9 15.37,114.37 46.21,154.41 30.8,40.05 77,60.09 138.68,60.09 29.57,0 55.14,-5.24 76.72,-15.73 21.59,-10.44 39.42,-24.31 53.62,-41.6 14.17,-17.24 24.3,-37.56 30.52,-61.01 6.15,-23.39 9.26,-47.44 9.26,-72.1l0 -236.63zm5.51 541.72c-27.12,32.03 -61.92,58.85 -104.45,80.4 -42.52,21.56 -90.89,32.35 -145.11,32.35 -53.02,0 -102.64,-10.48 -148.85,-31.42 -46.24,-20.94 -86.29,-50.85 -120.2,-89.69 -33.91,-38.82 -60.69,-85.66 -80.39,-140.51 -19.75,-54.8 -29.6,-116.75 -29.6,-185.82 0,-77.65 13.88,-145.75 41.6,-204.27 27.74,-58.55 63.48,-106.92 107.25,-145.14 43.73,-38.22 92.44,-66.85 146.06,-85.99 53.59,-19.07 106.29,-28.67 158.07,-28.67 41.89,0 74.57,2.8 97.99,8.34 23.42,5.53 47.4,12.64 72.13,21.26l0 -377.15 264.36 0 0 1233.18 -247.76 0 -11.09 -86.88z"/>
  <path class="fil1" d="M4558 2683.13c-5.37,8.76 -13.64,18.76 -24.83,29.98 -11.23,11.2 -24.87,21.81 -40.94,31.81 -16.07,9.95 -34.61,18.37 -55.56,25.18 -20.95,6.83 -44.12,10.23 -69.45,10.23 -36.07,0 -68.95,-6.35 -98.66,-19 -29.78,-12.62 -55.35,-30.33 -76.76,-52.98 -21.48,-22.63 -38.18,-49.46 -50.08,-80.41 -11.94,-30.94 -17.91,-64.67 -17.91,-101.24 0,-35.58 5.98,-68.97 17.91,-100.15 11.91,-31.18 28.61,-58.47 50.08,-81.9 21.41,-23.38 47.12,-41.76 77.08,-55.15 29.99,-13.38 63.26,-20.12 99.83,-20.12 25.78,0 48.95,3.17 69.41,9.52 20.45,6.32 38.39,14.26 53.72,23.73 15.37,9.52 28.51,19.85 39.49,31.09 10.95,11.2 19.86,21.94 26.67,32.15l-49.7 42.38c-5.86,-8.24 -12.79,-16.93 -20.84,-25.96 -8.05,-8.97 -17.66,-17.15 -28.9,-24.46 -11.16,-7.32 -24.09,-13.42 -38.75,-18.24 -14.59,-4.91 -31.4,-7.36 -50.4,-7.36 -26.81,0 -50.8,5.15 -71.99,15.36 -21.23,10.24 -39.24,24.14 -54.11,41.67 -14.87,17.55 -26.21,38.01 -33.98,61.4 -7.77,23.39 -11.7,48.25 -11.7,74.54 0,26.32 4.04,51.1 12.09,74.24 8.02,23.15 19.35,43.26 33.98,60.3 14.59,17.04 32.39,30.47 53.34,40.19 20.98,9.75 44.37,14.63 70.18,14.63 21.94,0 40.8,-2.8 56.66,-8.39 15.82,-5.62 29.21,-12.31 40.2,-20.11 10.94,-7.79 19.99,-15.73 27.01,-23.77 7.1,-8.03 13.04,-14.76 17.94,-20.08l48.96 40.91z"/>
  <path class="fil1" d="M5190.28 2573.48l-78.91 -214.15 -79.69 214.15 158.6 0zm-112.57 -292.39l71.63 0 190.81 487.59 -78.24 0 -50.4 -135.98 -200.28 0 -50.47 135.98 -73.82 0 190.77 -487.59z"/>
  <path class="fil1" d="M5868.66 2509.87c30.7,0 53.73,-7.52 69.09,-22.67 15.33,-15.07 23,-35.29 23,-60.65 0,-26.76 -8.3,-47.6 -24.87,-62.5 -16.56,-14.86 -39.45,-22.32 -68.7,-22.32l-92.09 0 0 168.14 93.57 0zm-161.57 -228.77l155.74 0c31.15,0 57.43,4.28 78.91,12.79 21.44,8.53 38.86,19.5 52.28,32.88 13.39,13.46 23.14,28.66 29.22,45.7 6.11,17.04 9.14,34.36 9.14,51.89 0,31.22 -7.31,58.75 -21.9,82.62 -14.62,23.88 -37.3,41.67 -68.03,53.36l114.06 208.36 -78.95 0 -104.51 -199.6 -97.96 0 0 199.6 -68 0 0 -487.59z"/>
  <polygon class="fil1" points="6441.75,2281.1 6748.74,2281.1 6748.74,2343.22 6511.9,2343.22 6511.9,2485.03 6690.25,2485.03 6690.25,2547.88 6511.9,2547.88 6511.9,2705.8 6766.29,2705.8 6766.29,2768.68 6441.75,2768.68 "/>
  <path class="fil1" d="M7704.12 2535.46c-25.35,17.55 -43.27,34.24 -53.72,50.08 -10.46,15.83 -15.69,34.49 -15.69,55.91 0,21.94 7.28,40.22 21.94,54.82 14.59,14.63 36.03,21.94 64.32,21.94 22.36,0 41.26,-5.01 56.66,-14.97 15.29,-10 29.07,-22.05 41.25,-36.2l-114.77 -131.59zm155.74 179.81c-17.09,18.05 -36.7,33.44 -58.85,46.06 -22.18,12.66 -49.87,19 -82.98,19 -24.86,0 -46.9,-3.51 -66.15,-10.58 -19.25,-7.04 -35.33,-16.83 -48.25,-29.23 -12.93,-12.42 -22.64,-26.83 -29.22,-43.15 -6.6,-16.32 -9.88,-33.73 -9.88,-52.27 0,-30.7 8.3,-58.5 24.83,-83.3 16.6,-24.88 41.92,-49.02 76.01,-72.41l-8.72 -10.92c-11.73,-14.67 -20.74,-29.74 -27.09,-45.33 -6.32,-15.59 -9.5,-32.15 -9.5,-49.74 0,-14.6 2.93,-28.84 8.8,-42.7 5.86,-13.94 14.23,-26.21 25.18,-36.96 10.98,-10.71 24.55,-19.24 40.58,-25.55 16.08,-6.34 34.37,-9.51 54.83,-9.51 18.54,0 34.47,2.3 47.89,6.93 13.39,4.62 25.12,10.73 35.08,18.27 10,7.56 18.26,16.08 24.83,25.6 6.58,9.49 12.37,19.35 17.2,29.59l-48.99 31.44c-12.65,-21.92 -24.69,-36.44 -36.17,-43.51 -11.44,-7.07 -23.53,-10.58 -36.18,-10.58 -20.98,0 -36.8,5.59 -47.5,16.79 -10.74,11.21 -16.11,24.39 -16.11,39.46 0,13.18 3.53,25.98 10.63,38.4 7.06,12.42 16.42,25.45 28.15,39.12l133.03 155.67 63.58 -81.13 49.7 39.46 -72.34 90.7 89.18 103.79 -84.84 0 -46.74 -53.41z"/>
  <path class="fil1" d="M8819.63 2650.22c6.78,7.84 14.48,15.73 22.99,23.78 8.51,8.02 18.19,15.2 28.86,21.55 10.74,6.35 22.68,11.49 35.83,15.36 13.17,3.89 27.55,5.86 43.17,5.86 32.14,0 57.22,-7.35 75.27,-21.94 18.01,-14.62 27.06,-34.35 27.06,-59.23 0,-26.8 -10.25,-46.88 -30.7,-60.31 -20.49,-13.38 -49.98,-24.24 -88.48,-32.49 -20.95,-4.42 -39.95,-10.48 -56.97,-18.28 -17.1,-7.8 -31.83,-17.55 -44.23,-29.25 -12.44,-11.68 -22.08,-25.21 -28.9,-40.57 -6.82,-15.34 -10.24,-32.77 -10.24,-52.25 0,-18.05 3.42,-35.13 10.24,-51.2 6.82,-16.07 17.02,-30.22 30.73,-42.39 13.64,-12.15 30.66,-21.95 51.12,-29.22 20.49,-7.31 44.12,-10.96 70.93,-10.96 23.84,0 44.44,2.54 61.78,7.68 17.27,5.08 32,11.31 44.23,18.63 12.19,7.28 21.93,14.87 29.21,22.67 7.31,7.75 12.93,14.1 16.81,18.99l-46.77 43.13c-2.92,-3.41 -7.27,-7.94 -13.14,-13.56 -5.87,-5.56 -13.32,-11.03 -22.32,-16.41 -9.05,-5.39 -19.51,-9.87 -31.41,-13.53 -11.94,-3.65 -25.71,-5.49 -41.32,-5.49 -15.61,0 -29,2.06 -40.2,6.21 -11.23,4.18 -20.45,9.49 -27.8,16.07 -7.28,6.6 -12.69,14.01 -16.07,22.33 -3.39,8.27 -5.09,16.55 -5.09,24.83 0,12.18 2.54,22.56 7.66,31.08 5.13,8.52 12.55,16.07 22.29,22.67 9.75,6.58 21.8,12.17 36.21,16.79 14.35,4.67 30.77,9.14 49.31,13.52 18.05,4.39 35.72,10.11 52.99,17.18 17.34,7.08 32.77,16.6 46.41,28.49 13.64,11.99 24.51,26.61 32.57,43.89 8.02,17.28 12.05,38.36 12.05,63.23 0,20.98 -4.39,40.18 -13.18,57.74 -8.76,17.52 -20.81,32.8 -36.18,45.7 -15.33,12.91 -33.51,22.91 -54.46,29.95 -20.95,7.08 -43.63,10.62 -67.97,10.62 -22.89,0 -43.73,-2.69 -62.48,-8.07 -18.79,-5.32 -35.86,-12.15 -51.19,-20.46 -15.33,-8.27 -28.76,-17.42 -40.2,-27.39 -11.47,-10 -20.84,-19.87 -28.15,-29.64l49.73 -45.33z"/>
  <path class="fil1" d="M9523.51 2281.1l70.22 0 0 285.07c0,21.94 1.9,42.01 5.83,60.33 3.88,18.28 10.56,33.98 20.07,47.12 9.53,13.18 22.18,23.29 38.04,30.36 15.83,7.03 35.96,10.59 60.3,10.59 23.88,0 43.74,-3.56 59.59,-10.59 15.83,-7.07 28.51,-17.18 38.01,-30.36 9.5,-13.14 16.18,-28.84 20.11,-47.12 3.88,-18.31 5.86,-38.39 5.86,-60.33l0 -285.07 70.15 0 0 301.9c0,27.77 -3.88,53.71 -11.68,77.85 -7.81,24.12 -19.65,45.1 -35.47,62.85 -15.83,17.8 -35.93,31.81 -60.3,42.05 -24.37,10.21 -53.09,15.35 -86.26,15.35 -33.13,0 -61.89,-5.14 -86.22,-15.35 -24.41,-10.24 -44.62,-24.25 -60.69,-42.05 -16.11,-17.75 -28.01,-38.73 -35.82,-62.85 -7.81,-24.14 -11.73,-50.08 -11.73,-77.85l0 -301.9z"/>
  <path class="fil1" d="M10479.64 2517.21c30.2,0 53.48,-7.69 69.79,-23.04 16.32,-15.35 24.48,-36.67 24.48,-63.96 0,-27.76 -8.4,-49.56 -25.18,-65.42 -16.81,-15.84 -39.84,-23.74 -69.09,-23.74l-87.71 0 0 176.17 87.71 0zm-157.19 -236.11l154.26 0c33.13,0 60.54,4.63 82.23,13.9 21.73,9.24 39,20.95 51.9,35.09 12.93,14.1 21.97,29.97 27.09,47.49 5.09,17.57 7.63,34.6 7.63,51.17 0,24.38 -4.14,45.84 -12.41,64.32 -8.3,18.53 -19.75,33.98 -34.36,46.43 -14.63,12.43 -32.07,21.85 -52.28,28.13 -20.21,6.35 -42.28,9.52 -66.12,9.52l-88.45 0 0 191.55 -69.48 0 0 -487.59z"/>
  <path class="fil1" d="M11196.73 2517.21c30.2,0 53.52,-7.69 69.8,-23.04 16.35,-15.35 24.51,-36.67 24.51,-63.96 0,-27.76 -8.4,-49.56 -25.22,-65.42 -16.81,-15.84 -39.84,-23.74 -69.09,-23.74l-87.7 0 0 176.17 87.7 0zm-157.15 -236.11l154.26 0c33.09,0 60.54,4.63 82.23,13.9 21.69,9.24 39,20.95 51.9,35.09 12.89,14.1 21.93,29.97 27.05,47.49 5.09,17.57 7.67,34.6 7.67,51.17 0,24.38 -4.18,45.84 -12.41,64.32 -8.3,18.53 -19.78,33.98 -34.36,46.43 -14.66,12.43 -32.07,21.85 -52.28,28.13 -20.21,6.35 -42.28,9.52 -66.16,9.52l-88.44 0 0 191.55 -69.45 0 0 -487.59z"/>
  <path class="fil1" d="M11978.15 2715.27c26.8,0 51.04,-5.1 72.76,-15.34 21.65,-10.25 40.19,-24.12 55.52,-41.64 15.37,-17.54 27.16,-37.9 35.47,-61.06 8.27,-23.13 12.44,-47.63 12.44,-73.43 0,-26.32 -4.17,-51.05 -12.44,-74.23 -8.3,-23.16 -20.1,-43.51 -35.47,-61.03 -15.33,-17.55 -33.87,-31.28 -55.52,-41.28 -21.73,-9.98 -45.96,-15.02 -72.76,-15.02 -26.78,0 -50.91,5.04 -72.34,15.02 -21.45,10 -39.85,23.73 -55.21,41.28 -15.33,17.52 -27.16,37.87 -35.44,61.03 -8.3,23.18 -12.43,47.9 -12.43,74.23 0,25.8 4.13,50.3 12.43,73.43 8.27,23.16 20.11,43.52 35.44,61.06 15.36,17.52 33.76,31.39 55.21,41.64 21.44,10.24 45.56,15.34 72.34,15.34zm0 65.82c-35.09,0 -67.72,-6.72 -97.92,-20.11 -30.24,-13.39 -56.55,-31.71 -78.99,-54.82 -22.43,-23.14 -39.95,-50.32 -52.63,-81.5 -12.65,-31.18 -19,-64.57 -19,-100.15 0,-35.6 6.36,-68.85 19,-99.79 12.68,-30.95 30.1,-57.99 52.28,-81.17 22.15,-23.11 48.5,-41.39 78.95,-54.8 30.45,-13.39 63.22,-20.08 98.31,-20.08 35.11,0 67.89,6.69 98.34,20.08 30.41,13.41 56.87,31.69 79.3,54.8 22.43,23.18 39.95,50.22 52.67,81.17 12.61,30.94 19,64.19 19,99.79 0,35.58 -6.4,68.97 -19,100.15 -12.72,31.18 -30.24,58.36 -52.67,81.5 -22.43,23.11 -48.89,41.43 -79.3,54.82 -30.45,13.39 -63.23,20.11 -98.34,20.11z"/>
  <path class="fil1" d="M12783.69 2509.87c30.7,0 53.7,-7.52 69.06,-22.67 15.37,-15.07 23.07,-35.29 23.07,-60.65 0,-26.76 -8.34,-47.6 -24.9,-62.5 -16.53,-14.86 -39.46,-22.32 -68.67,-22.32l-92.13 0 0 168.14 93.57 0zm-161.57 -228.77l155.74 0c31.16,0 57.47,4.28 78.91,12.79 21.45,8.53 38.86,19.5 52.29,32.88 13.39,13.46 23.13,28.66 29.25,45.7 6.07,17.04 9.11,34.36 9.11,51.89 0,31.22 -7.32,58.75 -21.94,82.62 -14.59,23.88 -37.27,41.67 -67.96,53.36l114.06 208.36 -78.98 0 -104.52 -199.6 -97.96 0 0 199.6 -68 0 0 -487.59z"/>
  <polygon class="fil1" points="13478.89,2342.5 13304.18,2342.5 13304.18,2281.1 13723,2281.1 13723,2342.5 13549.04,2342.5 13549.04,2768.68 13478.89,2768.68 "/>
  <polygon class="fil2" points="4187.95,3132.85 4245.6,3132.85 4245.6,3300.39 4464.78,3300.39 4464.78,3132.85 4522.42,3132.85 4522.42,3533.37 4464.78,3533.37 4464.78,3352.03 4245.6,3352.03 4245.6,3533.37 4187.95,3533.37 "/>
  <path class="fil2" d="M4821.48 3369.45c-1.63,-21.63 -9.22,-40.02 -22.82,-55.27 -13.61,-15.2 -32.82,-22.79 -57.65,-22.79 -12.82,0 -24.33,2.2 -34.54,6.58 -10.2,4.42 -18.89,10.21 -26.1,17.43 -7.21,7.2 -12.79,15.52 -16.81,24.93 -4,9.38 -6.18,19.1 -6.61,29.12l164.54 0zm48.63 123.12c-3.21,3.58 -8.01,8.2 -14.41,13.8 -6.43,5.61 -14.7,10.99 -24.9,16.21 -10.21,5.2 -22.22,9.68 -36.07,13.51 -13.78,3.8 -29.53,5.73 -47.12,5.73 -21.62,0 -41.43,-3.61 -59.45,-10.82 -18.01,-7.21 -33.45,-17.42 -46.24,-30.63 -12.83,-13.22 -22.75,-29.02 -29.75,-47.44 -6.99,-18.41 -10.48,-38.84 -10.48,-61.26 0,-20.43 3.38,-39.53 10.2,-57.36 6.82,-17.79 16.39,-33.22 28.83,-46.22 12.4,-13.01 27.09,-23.32 44.16,-30.91 16.99,-7.63 35.71,-11.42 56.12,-11.42 24.02,0 44.62,4.6 61.85,13.8 17.2,9.22 31.3,21.43 42.35,36.64 10.98,15.22 19.11,32.63 24.3,52.27 5.2,19.6 7.81,40.01 7.81,61.22l-220.38 0c0.43,12.43 3.11,23.84 8.09,34.22 5.02,10.41 11.73,19.42 20.14,27.04 8.4,7.59 18.01,13.59 28.83,18 10.8,4.42 22.22,6.63 34.22,6.63 23.63,0 43.06,-4.01 58.24,-12.04 15.23,-8 26.21,-15.8 33.03,-23.43l30.62 32.47z"/>
  <path class="fil2" d="M4947.58 3311.19c0,-11.58 0,-21.7 0,-30.32 0,-8.59 -0.21,-17.49 -0.6,-26.7l51.64 0 1.77 45.02c3.21,-4.8 7.42,-10.11 12.65,-15.9 5.19,-5.8 11.47,-11.11 18.89,-15.9 7.42,-4.83 16,-8.94 25.82,-12.32 9.82,-3.41 21.12,-5.11 33.91,-5.11 6.04,0 11.54,0.38 16.53,1.17 5.01,0.82 9.71,2.04 14.13,3.62l-12.02 50.43c-7.2,-2.8 -16.42,-4.21 -27.63,-4.21 -11.61,0 -22.32,2.2 -32.14,6.62 -9.78,4.42 -18.29,10.48 -25.5,18.31 -7.21,7.79 -12.93,16.9 -17.13,27.32 -4.21,10.42 -6.29,21.43 -6.29,33.02l0 147.12 -54.04 0 0 -222.19z"/>
  <path class="fil2" d="M5382.34 3369.45c-1.63,-21.63 -9.22,-40.02 -22.86,-55.27 -13.57,-15.2 -32.78,-22.79 -57.61,-22.79 -12.82,0 -24.33,2.2 -34.54,6.58 -10.2,4.42 -18.89,10.21 -26.1,17.43 -7.21,7.2 -12.79,15.52 -16.81,24.93 -4,9.38 -6.22,19.1 -6.61,29.12l164.54 0zm48.63 123.12c-3.21,3.58 -8.01,8.2 -14.41,13.8 -6.43,5.61 -14.7,10.99 -24.9,16.21 -10.21,5.2 -22.22,9.68 -36.07,13.51 -13.78,3.8 -29.53,5.73 -47.12,5.73 -21.62,0 -41.43,-3.61 -59.45,-10.82 -18.01,-7.21 -33.45,-17.42 -46.24,-30.63 -12.83,-13.22 -22.75,-29.02 -29.74,-47.44 -7,-18.41 -10.49,-38.84 -10.49,-61.26 0,-20.43 3.38,-39.53 10.2,-57.36 6.82,-17.79 16.39,-33.22 28.83,-46.22 12.4,-13.01 27.09,-23.32 44.16,-30.91 16.99,-7.63 35.71,-11.42 56.12,-11.42 24.02,0 44.62,4.6 61.85,13.8 17.2,9.22 31.3,21.43 42.35,36.64 10.98,15.22 19.11,32.63 24.3,52.27 5.2,19.6 7.81,40.01 7.81,61.22l-220.38 0c0.39,12.43 3.11,23.84 8.09,34.22 5.02,10.41 11.73,19.42 20.14,27.04 8.41,7.59 18.01,13.59 28.83,18 10.8,4.42 22.22,6.63 34.22,6.63 23.63,0 43.03,-4.01 58.24,-12.04 15.23,-8 26.21,-15.8 33.03,-23.43l30.62 32.47z"/>
  <polygon class="fil2" points="5596.71,3254.17 5656.16,3254.17 5718.61,3467.32 5785.87,3254.17 5832.11,3254.17 5899.36,3469.14 5960.61,3254.17 6016.45,3254.17 5923.98,3533.37 5870.53,3533.37 5805.68,3338.23 5741.43,3533.37 5690.98,3533.37 "/>
  <path class="fil2" d="M6073.46 3254.17l54.08 0 0 279.21 -54.08 0 0 -279.21zm-3.56 -110.52l60.65 0 0 60.69 -60.65 0 0 -60.69z"/>
  <path class="fil2" d="M6238.6 3299.18l-50.43 0 0 -45.02 50.43 0 0 -91.28 54.05 0 0 91.28 81.7 0 0 45.02 -81.7 0 0 137.53c0,22.43 3.53,37.81 10.52,46.23 7.03,8.41 16.92,12.63 29.71,12.63 10.42,0 19,-1.61 25.85,-4.84 6.79,-3.17 13.57,-8 20.43,-14.42l24.61 33.05c-11.61,11.21 -23.52,19.31 -35.75,24.32 -12.19,5.02 -26.73,7.52 -43.52,7.52 -29.64,0 -51.36,-8.01 -65.17,-24.05 -13.81,-16 -20.74,-41 -20.74,-75.06l0 -142.91z"/>
  <path class="fil2" d="M6454.77 3132.85l53.45 0 0 162.75c3.63,-4.83 8.02,-10 13.21,-15.63 5.2,-5.59 11.62,-10.79 19.22,-15.62 7.63,-4.81 16.42,-8.8 26.41,-12.01 10,-3.17 21.41,-4.81 34.26,-4.81 36.42,0 63.44,10.63 81.06,31.85 17.59,21.21 26.42,50.04 26.42,86.44l0 167.55 -54.08 0 0 -163.33c0,-26.01 -5.62,-45.13 -16.77,-57.33 -11.23,-12.22 -27.06,-18.32 -47.48,-18.32 -15.58,0 -28.61,3.21 -38.99,9.59 -10.42,6.41 -18.76,14.73 -24.94,24.94 -6.22,10.21 -10.7,21.8 -13.5,34.8 -2.82,13.04 -4.2,26.35 -4.2,39.94l0 129.71 -54.09 0 0 -400.52z"/>
  <path class="fil2" d="M6911.75 3601.86c4,3.55 8.62,6.78 13.82,9.56 5.19,2.8 11.61,4.21 19.21,4.21 6.39,0 11.91,-1.4 16.53,-4.21 4.59,-2.78 8.79,-7.09 12.61,-12.89 3.78,-5.8 7.42,-12.82 10.77,-21.02 3.42,-8.19 7.31,-17.73 11.73,-28.51l7.21 -18.02 -124.9 -276.83 61.85 0 90.08 210.76 79.26 -210.76 58.85 0 -111.68 272c-5.2,12.82 -10.53,26.95 -15.9,42.34 -5.41,15.4 -12.12,30.03 -20.1,43.84 -8.06,13.82 -17.84,25.29 -29.43,34.51 -11.65,9.21 -26.27,13.86 -43.87,13.86 -14.03,0 -25.82,-1.92 -35.44,-5.73 -9.6,-3.82 -17.97,-8.9 -25.18,-15.33l24.58 -37.8z"/>
  <path class="fil2" d="M7344.75 3494.95c14.41,0 27.41,-2.9 39,-8.7 11.61,-5.79 21.44,-13.41 29.42,-22.83 8.02,-9.38 14.17,-20.22 18.33,-32.42 4.21,-12.22 6.29,-24.7 6.29,-37.54 0,-12.38 -2.08,-24.7 -6.29,-36.91 -4.17,-12.22 -10.42,-23.14 -18.61,-32.73 -8.2,-9.63 -17.98,-17.31 -29.43,-23.11 -11.4,-5.8 -24.3,-8.73 -38.71,-8.73 -14.45,0 -27.45,2.93 -39.07,8.73 -11.58,5.8 -21.41,13.42 -29.43,22.8 -7.98,9.42 -14.09,20.22 -18.29,32.42 -4.21,12.22 -6.29,24.74 -6.29,37.53 0,12.84 2.08,25.22 6.29,37.23 4.21,12.04 10.42,22.84 18.61,32.45 8.2,9.59 18.01,17.32 29.43,23.11 11.4,5.8 24.3,8.7 38.75,8.7zm0 46.87c-21.66,0 -41.43,-3.94 -59.45,-11.72 -18.05,-7.84 -33.56,-18.53 -46.56,-32.15 -13.04,-13.59 -23.24,-29.32 -30.63,-47.12 -7.41,-17.84 -11.08,-36.95 -11.08,-57.37 0,-20.42 3.67,-39.53 11.08,-57.33 7.39,-17.82 17.59,-33.52 30.63,-47.14 13,-13.6 28.51,-24.33 46.56,-32.12 18.01,-7.8 37.79,-11.74 59.45,-11.74 21.2,0 40.83,3.94 58.85,11.74 17.98,7.79 33.63,18.52 46.84,32.12 13.21,13.62 23.49,29.32 30.91,47.14 7.42,17.8 11.08,36.92 11.08,57.33 0,20.43 -3.66,39.53 -11.08,57.37 -7.42,17.8 -17.7,33.53 -30.91,47.12 -13.21,13.62 -28.86,24.31 -46.84,32.15 -18.01,7.78 -37.65,11.72 -58.85,11.72z"/>
  <path class="fil2" d="M7562.09 3254.17l54.05 0 0 163.92c0,26.42 5.44,45.54 16.21,57.33 10.81,11.84 26.42,17.72 46.84,17.72 15.61,0 28.54,-3.19 38.75,-9.61 10.2,-6.39 18.47,-14.7 24.9,-24.9 6.43,-10.21 10.91,-21.81 13.53,-34.84 2.58,-13.01 3.88,-26.32 3.88,-39.91l0 -129.71 54.08 0 0 218.56c0,12.42 0,23.11 0,32.12 0,9 0.14,18.51 0.57,28.53l-51.65 0 -1.8 -41.43c-3.6,4.8 -8.02,10.01 -13.21,15.62 -5.2,5.6 -11.62,10.7 -19.18,15.32 -7.63,4.6 -16.42,8.49 -26.45,11.68 -10,3.21 -21.41,4.81 -34.19,4.81 -36.49,0 -63.26,-10.49 -80.5,-31.53 -17.2,-21 -25.82,-49.7 -25.82,-86.17l0 -167.5z"/>
  <path class="fil2" d="M8224.44 3369.45c-1.59,-21.63 -9.22,-40.02 -22.82,-55.27 -13.61,-15.2 -32.82,-22.79 -57.61,-22.79 -12.86,0 -24.34,2.2 -34.54,6.58 -10.21,4.42 -18.9,10.21 -26.1,17.43 -7.21,7.2 -12.83,15.52 -16.85,24.93 -4,9.38 -6.22,19.1 -6.57,29.12l164.5 0zm48.67 123.12c-3.21,3.58 -8.05,8.2 -14.41,13.8 -6.43,5.61 -14.74,10.99 -24.94,16.21 -10.21,5.2 -22.22,9.68 -36.03,13.51 -13.85,3.8 -29.54,5.73 -47.16,5.73 -21.58,0 -41.43,-3.61 -59.45,-10.82 -17.98,-7.21 -33.41,-17.42 -46.24,-30.63 -12.79,-13.22 -22.71,-29.02 -29.71,-47.44 -6.99,-18.41 -10.52,-38.84 -10.52,-61.26 0,-20.43 3.42,-39.53 10.2,-57.36 6.82,-17.79 16.43,-33.22 28.87,-46.22 12.36,-13.01 27.08,-23.32 44.12,-30.91 16.99,-7.63 35.71,-11.42 56.16,-11.42 23.98,0 44.61,4.6 61.85,13.8 17.2,9.22 31.3,21.43 42.31,36.64 10.98,15.22 19.11,32.63 24.3,52.27 5.24,19.6 7.81,40.01 7.81,61.22l-220.34 0c0.35,12.43 3.07,23.84 8.09,34.22 5.02,10.41 11.68,19.42 20.13,27.04 8.41,7.59 17.98,13.59 28.8,18 10.84,4.42 22.25,6.63 34.26,6.63 23.59,0 42.99,-4.01 58.2,-12.04 15.23,-8 26.21,-15.8 33.06,-23.43l30.63 32.47z"/>
  <polygon class="fil2" points="8304.9,3254.17 8366.75,3254.17 8453.82,3472.15 8540.29,3254.17 8598.58,3254.17 8479.07,3533.37 8425.03,3533.37 "/>
  <path class="fil2" d="M8856.15 3369.45c-1.58,-21.63 -9.21,-40.02 -22.82,-55.27 -13.63,-15.2 -32.81,-22.79 -57.64,-22.79 -12.82,0 -24.3,2.2 -34.51,6.58 -10.2,4.42 -18.89,10.21 -26.1,17.43 -7.24,7.2 -12.86,15.52 -16.84,24.93 -4,9.38 -6.22,19.1 -6.61,29.12l164.53 0zm48.68 123.12c-3.21,3.58 -8.06,8.2 -14.45,13.8 -6.4,5.61 -14.73,10.99 -24.94,16.21 -10.2,5.2 -22.22,9.68 -36,13.51 -13.84,3.8 -29.53,5.73 -47.15,5.73 -21.59,0 -41.43,-3.61 -59.45,-10.82 -17.98,-7.21 -33.42,-17.42 -46.24,-30.63 -12.83,-13.22 -22.72,-29.02 -29.71,-47.44 -7,-18.41 -10.52,-38.84 -10.52,-61.26 0,-20.43 3.42,-39.53 10.2,-57.36 6.78,-17.79 16.43,-33.22 28.86,-46.22 12.37,-13.01 27.09,-23.32 44.12,-30.91 16.99,-7.63 35.72,-11.42 56.13,-11.42 24.02,0 44.65,4.6 61.85,13.8 17.24,9.22 31.33,21.43 42.35,36.64 10.98,15.22 19.11,32.63 24.3,52.27 5.23,19.6 7.81,40.01 7.81,61.22l-220.38 0c0.39,12.43 3.07,23.84 8.12,34.22 5.02,10.41 11.7,19.42 20.11,27.04 8.44,7.59 18.01,13.59 28.82,18 10.81,4.42 22.26,6.63 34.23,6.63 23.59,0 43.03,-4.01 58.24,-12.04 15.23,-8 26.21,-15.8 33.03,-23.43l30.66 32.47z"/>
  <path class="fil2" d="M8982.26 3311.19c0,-11.58 0,-21.7 0,-30.32 0,-8.59 -0.22,-17.49 -0.6,-26.7l51.64 0 1.8 45.02c3.21,-4.8 7.42,-10.11 12.65,-15.9 5.16,-5.8 11.48,-11.11 18.89,-15.9 7.39,-4.83 16.01,-8.94 25.79,-12.32 9.81,-3.41 21.12,-5.11 33.94,-5.11 6.01,0 11.47,0.38 16.53,1.17 4.98,0.82 9.68,2.04 14.09,3.62l-12.01 50.43c-7.21,-2.8 -16.39,-4.21 -27.63,-4.21 -11.61,0 -22.32,2.2 -32.1,6.62 -9.82,4.42 -18.33,10.48 -25.54,18.31 -7.21,7.79 -12.93,16.9 -17.09,27.32 -4.21,10.42 -6.33,21.43 -6.33,33.02l0 147.12 -54.04 0 0 -222.19z"/>
  <path class="fil2" d="M9212.27 3601.86c4,3.55 8.62,6.78 13.78,9.56 5.23,2.8 11.62,4.21 19.25,4.21 6.39,0 11.91,-1.4 16.49,-4.21 4.64,-2.78 8.8,-7.09 12.65,-12.89 3.78,-5.8 7.35,-12.82 10.77,-21.02 3.43,-8.19 7.32,-17.73 11.74,-28.51l7.2 -18.02 -124.9 -276.83 61.85 0 90.08 210.76 79.26 -210.76 58.86 0 -111.69 272c-5.2,12.82 -10.53,26.95 -15.9,42.34 -5.44,15.4 -12.15,30.03 -20.17,43.84 -7.98,13.82 -17.77,25.29 -29.43,34.51 -11.58,9.21 -26.2,13.86 -43.8,13.86 -14.03,0 -25.82,-1.92 -35.44,-5.73 -9.6,-3.82 -18.01,-8.9 -25.25,-15.33l24.65 -37.8z"/>
  <path class="fil2" d="M9659.65 3463.13c9.96,10 22.01,18.01 36,24.01 14.02,6 30.23,9.01 48.63,9.01 18.01,0 33.06,-2.9 45.08,-8.69 12.01,-5.84 17.97,-14.95 17.97,-27.37 0,-6.38 -1.3,-11.9 -3.88,-16.49 -2.61,-4.62 -6.99,-8.72 -13.21,-12.31 -6.22,-3.62 -14.41,-6.9 -24.62,-9.9 -10.2,-2.99 -22.92,-6.31 -38.11,-9.94 -10.84,-2.37 -21.55,-5.59 -32.15,-9.58 -10.59,-4.01 -20.13,-9.31 -28.54,-15.9 -8.37,-6.62 -15.23,-14.62 -20.39,-24.05 -5.23,-9.38 -7.84,-20.7 -7.84,-33.9 0,-13.63 3.11,-25.52 9.33,-35.74 6.21,-10.2 14.51,-18.8 24.93,-25.83 10.38,-7 22.12,-12.29 35.12,-15.9 13,-3.58 26.52,-5.43 40.51,-5.43 23.63,0 43.95,3.1 60.97,9.31 16.99,6.22 31.9,14.95 44.76,26.12l-29.43 37.26c-8.44,-7.63 -18.96,-14.01 -31.54,-19.22 -12.62,-5.2 -27.31,-7.82 -44.16,-7.82 -17.2,0 -31.01,2.82 -41.43,8.41 -10.42,5.62 -15.58,14.84 -15.58,27.63 0,12.01 6.89,20.91 20.71,26.74 13.81,5.8 31.89,11.31 54.36,16.49 13.21,3.19 25.46,6.9 36.91,11.1 11.41,4.21 21.41,9.62 30.03,16.21 8.58,6.63 15.4,14.73 20.38,24.31 5.02,9.63 7.53,21.25 7.53,34.84 0,14.01 -3.21,26.32 -9.57,36.95 -6.43,10.58 -15.05,19.49 -25.85,26.7 -10.77,7.2 -23.21,12.64 -37.2,16.2 -14.06,3.63 -28.65,5.45 -43.88,5.45 -52.84,0 -92.47,-14.24 -118.89,-42.66l33.06 -36.02z"/>
  <path class="fil2" d="M9959.25 3299.18l-50.47 0 0 -45.02 50.47 0 0 -91.28 54.05 0 0 91.28 81.66 0 0 45.02 -81.66 0 0 137.53c0,22.43 3.49,37.81 10.49,46.23 7.03,8.41 16.91,12.63 29.74,12.63 10.38,0 19,-1.61 25.82,-4.84 6.78,-3.17 13.6,-8 20.42,-14.42l24.62 33.05c-11.62,11.21 -23.53,19.31 -35.75,24.32 -12.19,5.02 -26.74,7.52 -43.53,7.52 -29.63,0 -51.32,-8.01 -65.16,-24.05 -13.78,-16 -20.71,-41 -20.71,-75.06l0 -142.91z"/>
  <path class="fil2" d="M10382 3369.45c-1.59,-21.63 -9.22,-40.02 -22.82,-55.27 -13.6,-15.2 -32.81,-22.79 -57.61,-22.79 -12.86,0 -24.34,2.2 -34.54,6.58 -10.21,4.42 -18.93,10.21 -26.14,17.43 -7.2,7.2 -12.79,15.52 -16.81,24.93 -4,9.38 -6.22,19.1 -6.61,29.12l164.54 0zm48.64 123.12c-3.21,3.58 -8.02,8.2 -14.42,13.8 -6.39,5.61 -14.69,10.99 -24.9,16.21 -10.2,5.2 -22.22,9.68 -36.03,13.51 -13.82,3.8 -29.53,5.73 -47.16,5.73 -21.62,0 -41.43,-3.61 -59.41,-10.82 -18.05,-7.21 -33.45,-17.42 -46.28,-30.63 -12.79,-13.22 -22.75,-29.02 -29.71,-47.44 -7.03,-18.41 -10.52,-38.84 -10.52,-61.26 0,-20.43 3.39,-39.53 10.21,-57.36 6.81,-17.79 16.42,-33.22 28.82,-46.22 12.4,-13.01 27.13,-23.32 44.16,-30.91 16.99,-7.63 35.75,-11.42 56.16,-11.42 23.98,0 44.58,4.6 61.85,13.8 17.17,9.22 31.3,21.43 42.31,36.64 10.99,15.22 19.11,32.63 24.31,52.27 5.23,19.6 7.8,40.01 7.8,61.22l-220.38 0c0.39,12.43 3.11,23.84 8.09,34.22 5.02,10.41 11.74,19.42 20.18,27.04 8.37,7.59 17.97,13.59 28.79,18 10.84,4.42 22.22,6.63 34.22,6.63 23.63,0 43.07,-4.01 58.25,-12.04 15.22,-8 26.2,-15.8 33.02,-23.43l30.63 32.47z"/>
  <path class="fil2" d="M10561.56 3472.73c6.39,5.22 15.57,10.21 27.59,15.01 12.05,4.84 27.05,7.21 45.07,7.21 13.57,0 26.1,-2.48 37.52,-7.48 11.4,-5.01 21.23,-12.05 29.42,-21.05 8.23,-9.01 14.49,-19.53 18.9,-31.53 4.42,-12 6.64,-25.22 6.64,-39.64 0,-13.59 -1.52,-26.42 -4.53,-38.43 -3,-12 -7.8,-22.58 -14.41,-31.8 -6.61,-9.2 -15.12,-16.51 -25.5,-21.94 -10.42,-5.38 -23.24,-8.1 -38.43,-8.1 -19.25,0 -35.68,5.32 -49.24,15.94 -13.64,10.58 -23.24,26.1 -28.86,46.52 -1.98,6.4 -3.21,13.32 -3.57,20.71 -0.42,7.42 -0.59,15.11 -0.59,23.11l0 71.47zm-53.49 -157.92c0,-12.42 0,-23.11 0,-32.15 0,-8.99 -0.21,-18.48 -0.56,-28.49l51.65 0 1.76 39.6c2.82,-3.59 6.82,-8 12.01,-13.21 5.24,-5.18 11.74,-10.18 19.54,-15.01 7.81,-4.79 16.92,-8.9 27.31,-12.32 10.42,-3.37 22.43,-5.1 36.07,-5.1 21.59,0 40.34,4.03 56.13,12.03 15.82,8.01 28.93,18.8 39.35,32.43 10.38,13.59 18.08,29.22 23.1,46.81 5.02,17.62 7.49,36.25 7.49,55.84 0,25.25 -4.32,47.06 -12.9,65.47 -8.62,18.42 -19.82,33.64 -33.62,45.65 -13.82,12.01 -29.22,20.9 -46.24,26.71 -17.03,5.8 -33.73,8.73 -50.16,8.73 -18.78,0 -33.9,-1.92 -45.32,-5.73 -11.4,-3.82 -22.11,-7.89 -32.1,-12.31l0 129.72 -53.49 0 0 -338.69z"/>
  <path class="fil2" d="M11106.83 3494.95c14.38,0 27.38,-2.9 38.99,-8.7 11.62,-5.79 21.41,-13.41 29.43,-22.83 8.02,-9.38 14.1,-20.22 18.33,-32.42 4.21,-12.22 6.29,-24.7 6.29,-37.54 0,-12.38 -2.08,-24.7 -6.29,-36.91 -4.24,-12.22 -10.42,-23.14 -18.65,-32.73 -8.19,-9.63 -18.01,-17.31 -29.39,-23.11 -11.4,-5.8 -24.33,-8.73 -38.71,-8.73 -14.45,0 -27.45,2.93 -39.07,8.73 -11.62,5.8 -21.41,13.42 -29.43,22.8 -8.01,9.42 -14.09,20.22 -18.32,32.42 -4.21,12.22 -6.29,24.74 -6.29,37.53 0,12.84 2.08,25.22 6.29,37.23 4.24,12.04 10.41,22.84 18.64,32.45 8.2,9.59 18.01,17.32 29.43,23.11 11.4,5.8 24.3,8.7 38.75,8.7zm0 46.87c-21.66,0 -41.43,-3.94 -59.49,-11.72 -18.01,-7.84 -33.52,-18.53 -46.52,-32.15 -13.04,-13.59 -23.24,-29.32 -30.66,-47.12 -7.42,-17.84 -11.09,-36.95 -11.09,-57.37 0,-20.42 3.67,-39.53 11.09,-57.33 7.42,-17.82 17.62,-33.52 30.66,-47.14 13,-13.6 28.51,-24.33 46.52,-32.12 18.05,-7.8 37.83,-11.74 59.49,-11.74 21.19,0 40.79,3.94 58.85,11.74 17.98,7.79 33.63,18.52 46.8,32.12 13.22,13.62 23.53,29.32 30.95,47.14 7.42,17.8 11.08,36.92 11.08,57.33 0,20.43 -3.66,39.53 -11.08,57.37 -7.42,17.8 -17.73,33.53 -30.95,47.12 -13.17,13.62 -28.82,24.31 -46.8,32.15 -18.05,7.78 -37.66,11.72 -58.85,11.72z"/>
  <path class="fil2" d="M11346.99 3299.18l-50.43 0 0 -45.02 50.43 0 0 -22.84c0,-18.79 2.68,-35.12 8.13,-48.94 5.37,-13.8 12.57,-25.11 21.58,-33.91 9.01,-8.79 19.32,-15.32 30.94,-19.53 11.58,-4.21 23.81,-6.3 36.64,-6.3 14.8,0 29.32,2.3 43.55,6.9 14.21,4.62 27.31,12.51 39.32,23.73l-27.02 34.83c-14.84,-12.42 -30.62,-18.62 -47.44,-18.62 -15.61,0 -28.12,5 -37.55,15 -9.39,10 -14.09,27.24 -14.09,51.65l0 18.03 79.86 0 0 45.02 -79.86 0 0 234.19 -54.05 0 0 -234.19z"/>
  <path class="fil2" d="M11677.27 3299.18l-50.47 0 0 -45.02 50.47 0 0 -91.28 54.01 0 0 91.28 81.7 0 0 45.02 -81.7 0 0 137.53c0,22.43 3.53,37.81 10.52,46.23 7,8.41 16.92,12.63 29.75,12.63 10.38,0 18.99,-1.61 25.78,-4.84 6.82,-3.17 13.64,-8 20.42,-14.42l24.65 33.05c-11.61,11.21 -23.52,19.31 -35.75,24.32 -12.22,5.02 -26.73,7.52 -43.52,7.52 -29.64,0 -51.36,-8.01 -65.17,-24.05 -13.81,-16 -20.7,-41 -20.7,-75.06l0 -142.91z"/>
  <path class="fil2" d="M11893.4 3132.85l53.45 0 0 162.75c3.6,-4.83 7.98,-10 13.21,-15.63 5.2,-5.59 11.62,-10.79 19.21,-15.62 7.63,-4.81 16.43,-8.8 26.42,-12.01 10,-3.17 21.41,-4.81 34.23,-4.81 36.42,0 63.43,10.63 81.06,31.85 17.59,21.21 26.38,50.04 26.38,86.44l0 167.55 -54.01 0 0 -163.33c0,-26.01 -5.62,-45.13 -16.81,-57.33 -11.23,-12.22 -27.02,-18.32 -47.44,-18.32 -15.65,0 -28.65,3.21 -39.03,9.59 -10.42,6.41 -18.72,14.73 -24.94,24.94 -6.18,10.21 -10.66,21.8 -13.49,34.8 -2.83,13.04 -4.21,26.35 -4.21,39.94l0 129.71 -54.05 0 0 -400.52z"/>
  <path class="fil2" d="M12436.25 3369.45c-1.58,-21.63 -9.21,-40.02 -22.78,-55.27 -13.64,-15.2 -32.85,-22.79 -57.64,-22.79 -12.83,0 -24.34,2.2 -34.55,6.58 -10.2,4.42 -18.93,10.21 -26.13,17.43 -7.21,7.2 -12.79,15.52 -16.78,24.93 -4.03,9.38 -6.22,19.1 -6.64,29.12l164.53 0zm48.64 123.12c-3.21,3.58 -7.98,8.2 -14.41,13.8 -6.4,5.61 -14.7,10.99 -24.9,16.21 -10.21,5.2 -22.22,9.68 -36.04,13.51 -13.81,3.8 -29.53,5.73 -47.15,5.73 -21.62,0 -41.4,-3.61 -59.42,-10.82 -18.05,-7.21 -33.41,-17.42 -46.27,-30.63 -12.79,-13.22 -22.72,-29.02 -29.71,-47.44 -7.03,-18.41 -10.49,-38.84 -10.49,-61.26 0,-20.43 3.35,-39.53 10.2,-57.36 6.79,-17.79 16.39,-33.22 28.8,-46.22 12.43,-13.01 27.15,-23.32 44.15,-30.91 16.99,-7.63 35.75,-11.42 56.17,-11.42 24.01,0 44.61,4.6 61.85,13.8 17.16,9.22 31.33,21.43 42.31,36.64 11.02,15.22 19.1,32.63 24.34,52.27 5.19,19.6 7.77,40.01 7.77,61.22l-220.38 0c0.42,12.43 3.1,23.84 8.12,34.22 4.99,10.41 11.73,19.42 20.14,27.04 8.37,7.59 18.01,13.59 28.79,18 10.84,4.42 22.22,6.63 34.23,6.63 23.63,0 43.06,-4.01 58.24,-12.04 15.22,-8 26.24,-15.8 33.02,-23.43l30.63 32.47z"/>
  <polygon class="fil2" points="12650.63,3254.17 12710.08,3254.17 12772.53,3467.32 12839.79,3254.17 12886.02,3254.17 12953.27,3469.14 13014.53,3254.17 13070.37,3254.17 12977.9,3533.37 12924.49,3533.37 12859.6,3338.23 12795.35,3533.37 12744.95,3533.37 "/>
  <path class="fil2" d="M13293.16 3401.26c-1.63,-0.37 -4.74,-0.9 -9.33,-1.48 -4.63,-0.59 -9.88,-1.1 -15.93,-1.51 -6,-0.39 -12.36,-0.8 -19.21,-1.17 -6.78,-0.42 -13.42,-0.62 -19.78,-0.62 -15.23,0 -27.56,1.79 -36.95,5.41 -9.4,3.58 -16.82,8.11 -22.22,13.52 -5.38,5.39 -9.12,11.38 -11.13,18.01 -1.97,6.59 -3,12.9 -3,18.9 0,15.21 5.24,26.73 15.65,34.53 10.38,7.79 24.8,11.73 43.21,11.73 10.41,0 20.35,-1.83 29.74,-5.43 9.4,-3.6 17.7,-8.41 24.9,-14.42 7.21,-6 13.04,-13 17.45,-21 4.42,-8 6.61,-16.21 6.61,-24.63l0 -31.84zm0.6 98.49c-10.42,14.04 -24.13,24.42 -41.12,31.25 -17.06,6.79 -34.54,10.21 -52.6,10.21 -11.58,0 -23.1,-1.51 -34.5,-4.53 -11.41,-2.99 -21.8,-8 -31.23,-15 -9.43,-7.01 -16.99,-16 -22.82,-27.04 -5.83,-11 -8.72,-24.49 -8.72,-40.53 0,-30.02 10.52,-54.02 31.54,-72.05 21.02,-18.01 51.37,-27.02 91,-27.02 6.39,0 13.18,0.21 20.38,0.6 7.21,0.41 14.03,0.82 20.42,1.19 6.43,0.42 12.02,0.83 16.85,1.22 4.81,0.41 8.16,0.83 10.21,1.2l0 -10.21c0,-20.8 -6.33,-35.74 -18.93,-44.74 -12.62,-9 -29.71,-13.52 -51.33,-13.52 -21.23,0 -38.05,2.92 -50.44,8.72 -12.44,5.8 -22.82,11.7 -31.26,17.7l-25.22 -36.64c4.85,-3.98 10.63,-8 17.45,-12.01 6.78,-4.01 14.8,-7.7 23.98,-11.1 9.22,-3.38 19.65,-6.21 31.26,-8.39 11.59,-2.2 25.01,-3.31 40.24,-3.31 35.99,0 64.32,8.69 84.95,26.12 20.63,17.41 30.94,42.15 30.94,74.17l0 132.12c0,10.41 0,20.52 0,30.31 0,9.8 0.18,18.11 0.6,24.91l-50.43 0 -1.2 -33.63z"/>
  <path class="fil2" d="M13418.06 3601.86c3.99,3.55 8.62,6.78 13.81,9.56 5.2,2.8 11.62,4.21 19.25,4.21 6.36,0 11.91,-1.4 16.46,-4.21 4.63,-2.78 8.83,-7.09 12.65,-12.89 3.77,-5.8 7.38,-12.82 10.8,-21.02 3.39,-8.19 7.31,-17.73 11.73,-28.51l7.21 -18.02 -124.9 -276.83 61.85 0 90.04 210.76 79.3 -210.76 58.85 0 -111.72 272c-5.19,12.82 -10.49,26.95 -15.89,42.34 -5.41,15.4 -12.16,30.03 -20.14,43.84 -8.02,13.82 -17.8,25.29 -29.43,34.51 -11.58,9.21 -26.2,13.86 -43.8,13.86 -14.06,0 -25.86,-1.92 -35.44,-5.73 -9.64,-3.82 -18.04,-8.9 -25.25,-15.33l24.62 -37.8z"/>
  <polygon class="fil1" points="1433.58,626.45 1413.74,597.21 1804.94,331.97 1824.76,361.24 "/>
  <polygon class="fil1" points="2747.16,3963.29 2743.33,3928.17 3178.29,3880.6 3182.12,3915.71 "/>
  <polygon class="fil1" points="2719.67,3743.75 2690.79,3723.41 2985.38,3305.53 3014.26,3325.89 "/>
  <polygon class="fil1" points="2231.56,3185.94 2227.15,3150.88 2756.21,3084.24 2760.62,3119.28 "/>
  <polygon class="fil1" points="2953.34,2838.05 2657.85,2413.45 2686.86,2393.3 2982.35,2817.91 "/>
  <polygon class="fil1" points="3251.95,2688.65 3217.71,2680.03 3333.98,2216.52 3368.22,2225.15 "/>
  <polygon class="fil1" points="3289.34,2209.72 2238.26,1569.11 2256.65,1538.97 3307.72,2179.57 "/>
  <polygon class="fil1" points="2320.7,1500.3 2316.44,1465.24 2774.45,1409.89 2778.69,1444.93 "/>
  <polygon class="fil1" points="2878.59,954.02 2615.13,491.23 2645.82,473.79 2909.29,936.57 "/>
  <polygon class="fil1" points="2142.58,890.52 2117.4,865.76 2421.72,556.26 2446.89,581.03 "/>
  <polygon class="fil1" points="2341.27,397.1 1917.27,354.61 1920.79,319.49 2344.79,361.98 "/>
  <polygon class="fil1" points="1604.81,1204.46 1587.29,1173.83 2010.97,931.58 2028.49,962.2 "/>
  <polygon class="fil1" points="1730.91,291.16 1491.52,160.58 1508.43,129.6 1747.81,260.18 "/>
  <polygon class="fil1" points="820.72,575.09 799.92,546.55 1361.97,137.37 1382.77,165.91 "/>
  <polygon class="fil1" points="191.52,1485.18 161.19,1467.03 352.62,1146.78 382.93,1164.93 "/>
  <polygon class="fil1" points="765.87,1725.13 688.96,1190.73 723.94,1185.69 800.85,1720.1 "/>
  <polygon class="fil1" points="213.59,2085.19 195.58,2054.84 664.76,1776.6 682.77,1806.95 "/>
  <polygon class="fil1" points="1344.31,1239.44 870.67,971.2 888.08,940.43 1361.73,1208.67 "/>
  <polygon class="fil1" points="1427.89,1021.47 1342.77,728.89 1376.67,719.01 1461.8,1011.61 "/>
  <polygon class="fil1" points="1484.5,2102.16 1449.21,2100.51 1470.83,1630.75 1506.12,1632.41 "/>
  <polygon class="fil1" points="715.79,2777.27 701.49,2744.99 1111.13,2563.64 1125.41,2595.92 "/>
  <polygon class="fil1" points="1530.35,3195.36 768.04,2879.35 781.56,2846.7 1543.88,3162.73 "/>
  <polygon class="fil1" points="1655.91,3163.17 1633.76,3135.63 2432.21,2492.76 2454.36,2520.28 "/>
  <path class="fil2" d="M280.92 2033.77c26.51,56.63 2.1,124 -54.5,150.49 -56.62,26.53 -124,2.11 -150.5,-54.5 -26.51,-56.6 -2.1,-123.98 54.5,-150.5 56.62,-26.49 123.99,-2.1 150.5,54.51z"/>
  <path class="fil2" d="M219.21 1613.54c-59.35,45.98 -144.74,35.15 -190.7,-24.18 -19.4,-25.03 -28.69,-54.7 -28.5,-84.09 0.27,-40.27 18.36,-80.03 52.67,-106.64 59.34,-45.98 144.72,-35.16 190.68,24.18 46.01,59.33 35.18,144.74 -24.15,190.72z"/>
  <path class="fil3" d="M3587.99 3148.24c-35.83,241.12 -260.3,407.55 -501.42,371.79 -241.12,-35.81 -407.56,-260.3 -371.76,-501.46 35.79,-241.12 260.28,-407.55 501.42,-371.75 241.12,35.81 407.57,260.29 371.76,501.42z"/>
  <path class="fil4" d="M1916.43 2516.49c-35.81,241.13 -260.3,407.55 -501.42,371.75 -241.12,-35.81 -407.58,-260.29 -371.78,-501.42 35.81,-241.12 260.3,-407.55 501.42,-371.75 241.12,35.81 407.58,260.3 371.78,501.42z"/>
  <path class="fil5" d="M1916.43 1424.86c-35.81,241.12 -260.3,407.55 -501.42,371.75 -241.12,-35.81 -407.58,-260.3 -371.78,-501.42 35.81,-241.12 260.3,-407.55 501.42,-371.75 241.12,35.81 407.58,260.29 371.78,501.42z"/>
  <path class="fil6" d="M3531.99 1369.74c-35.81,241.12 -260.3,407.54 -501.42,371.75 -241.13,-35.81 -407.55,-260.3 -371.75,-501.42 35.81,-241.13 260.29,-407.55 501.4,-371.76 241.14,35.81 407.56,260.3 371.77,501.43z"/>
  <path class="fil2" d="M995.46 888.25c-35.79,241.12 -260.28,407.55 -501.42,371.75 -241.12,-35.81 -407.56,-260.3 -371.76,-501.42 35.81,-241.13 260.3,-407.53 501.42,-371.76 241.12,35.82 407.56,260.29 371.76,501.43z"/>
  <path class="fil3" d="M2860.28 3959.78c-24.11,162.42 -175.36,274.53 -337.77,250.41 -162.45,-24.09 -274.56,-175.35 -250.45,-337.76 24.12,-162.45 175.35,-274.59 337.79,-250.48 162.43,24.16 274.57,175.4 250.43,337.83z"/>
  <path class="fil3" d="M2820.41 2304.21c-22.16,149.32 -161.21,252.39 -310.53,230.25 -149.33,-22.17 -252.4,-161.23 -230.24,-310.55 22.18,-149.33 161.21,-252.41 310.54,-230.23 149.33,22.18 252.39,161.2 230.23,310.53z"/>
  <path class="fil6" d="M2851.8 440.9c-22.19,149.35 -161.22,252.41 -310.54,230.28 -149.32,-22.19 -252.41,-161.25 -230.23,-310.56 22.16,-149.35 161.2,-252.42 310.52,-230.24 149.33,22.18 252.41,161.21 230.25,310.52z"/>
  <path class="fil4" d="M851.61 2846.64c-22.19,149.33 -161.22,252.4 -310.55,230.22 -149.33,-22.18 -252.39,-161.19 -230.24,-310.53 22.19,-149.32 161.22,-252.39 310.54,-230.25 149.33,22.17 252.4,161.23 230.25,310.56z"/>
  <path class="fil3" d="M3470.07 2175.54c26.51,56.6 2.1,124 -54.5,150.49 -56.62,26.53 -124,2.11 -150.5,-54.5 -26.51,-56.6 -2.1,-124 54.5,-150.49 56.62,-26.49 123.99,-2.11 150.5,54.5z"/>
  <path class="fil6" d="M2175.29 867.44c26.49,56.61 2.11,123.97 -54.51,150.46 -56.62,26.53 -124,2.11 -150.51,-54.5 -26.49,-56.6 -2.08,-123.98 54.53,-150.49 56.59,-26.49 123.99,-2.11 150.49,54.53z"/>
  <path class="fil5" d="M1535.89 65.2c26.5,56.62 2.11,123.98 -54.52,150.51 -56.61,26.49 -123.99,2.08 -150.48,-54.54 -26.51,-56.59 -2.1,-123.95 54.51,-150.48 56.59,-26.48 123.99,-2.08 150.49,54.51z"/>
  <path class="fil4" d="M1682.72 3153.07c26.51,56.6 2.1,124 -54.51,150.49 -56.61,26.49 -123.99,2.11 -150.49,-54.5 -26.5,-56.6 -2.11,-124 54.5,-150.49 56.6,-26.49 123.99,-2.11 150.5,54.5z"/>
  <path class="fil5" d="M1912.01 415.82c-59.34,45.99 -144.74,35.18 -190.7,-24.16 -45.99,-59.35 -35.16,-144.73 24.17,-190.71 59.34,-45.96 144.72,-35.15 190.7,24.2 45.99,59.34 35.16,144.72 -24.17,190.67z"/>
  <path class="fil3" d="M3371.22 3927.86c-9.18,61.84 -66.76,104.51 -128.59,95.32 -61.83,-9.14 -104.52,-66.73 -95.33,-128.57 9.18,-61.82 66.76,-104.52 128.59,-95.3 61.83,9.15 104.5,66.73 95.33,128.54z"/>
  <path class="fil3" d="M2496.63 3191.25c-14.47,97.46 -105.17,164.72 -202.62,150.23 -97.43,-14.46 -164.69,-105.18 -150.23,-202.63 14.47,-97.41 105.2,-164.67 202.62,-150.23 97.45,14.5 164.71,105.22 150.23,202.63z"/>
  <path class="fil2" d="M959.79 1748.83c-14.48,97.45 -105.2,164.68 -202.62,150.22 -97.47,-14.49 -164.71,-105.17 -150.24,-202.63 14.47,-97.44 105.18,-164.7 202.62,-150.21 97.44,14.44 164.69,105.16 150.24,202.62z"/>
  <path class="fil6" d="M2356.2 1535.59c-14.47,97.44 -105.18,164.7 -202.63,150.21 -97.45,-14.45 -164.69,-105.16 -150.23,-202.62 14.46,-97.42 105.18,-164.68 202.63,-150.22 97.44,14.49 164.69,105.22 150.23,202.63z"/>
  <path class="fil5" d="M1514.12 637.33c-2.54,98.46 -84.47,176.21 -182.94,173.65 -98.47,-2.55 -176.22,-84.49 -173.64,-182.97 2.56,-98.45 84.47,-176.2 182.94,-173.65 98.47,2.58 176.22,84.5 173.64,182.97z"/>
 </g>
</svg>
