<svg xmlns="http://www.w3.org/2000/svg" width="77.683" height="65.494" viewBox="0 0 77.683 65.494"><path d="M75.407,29.753H69.313c-.184,0-.367.008-.548.02a19.3,19.3,0,0,0-4.5-3.007,14.468,14.468,0,1,0-18.879-1.888H34.739A14.463,14.463,0,1,0,14.991,26.1a19.214,19.214,0,0,0-6.073,3.675c-.181-.012-.363-.02-.548-.02H2.276A2.276,2.276,0,0,0,0,32.029V44.217a2.276,2.276,0,0,0,2.276,2.276h.162V63.719a2.276,2.276,0,0,0,2.276,2.276H72.969a2.276,2.276,0,0,0,2.276-2.276V46.493h.162a2.276,2.276,0,0,0,2.276-2.276V32.029a2.276,2.276,0,0,0-2.276-2.276ZM73.131,41.941H69.313a3.818,3.818,0,1,1,0-7.637h3.819ZM45.993,14.964a9.913,9.913,0,1,1,9.913,9.912A9.924,9.924,0,0,1,45.993,14.964ZM24.216,5.052A9.912,9.912,0,1,1,14.3,14.964,9.924,9.924,0,0,1,24.216,5.052ZM4.552,34.3H8.37a3.818,3.818,0,1,1,0,7.637H4.552ZM6.99,46.493H8.37A8.365,8.365,0,0,0,13.776,31.74h.054a14.69,14.69,0,0,1,7.948-2.311H43.457a19.3,19.3,0,0,0-6.892,14.788V61.443H16.74V51.53a2.276,2.276,0,1,0-4.552,0v9.912H6.99Zm63.7,14.95h-5.2V51.53a2.276,2.276,0,0,0-4.552,0v9.912H41.117V44.217A14.8,14.8,0,0,1,63.884,31.76a8.365,8.365,0,0,0,5.429,14.733h1.38Zm0,0" transform="translate(0 -0.5)" fill="#9a2384"/></svg>