<svg xmlns="http://www.w3.org/2000/svg" width="65" height="65" viewBox="0 0 65 65"><g transform="translate(-578.867 -1924.912)"><g transform="translate(578.867 1924.912)"><path d="M61.191,42.224V5.713A5.719,5.719,0,0,0,55.479,0H13.457A5.719,5.719,0,0,0,7.744,5.713V7.744H5.713a5.713,5.713,0,0,0,0,11.426H7.744v7.617H5.713a5.713,5.713,0,0,0,0,11.426H7.744V45.83H5.713a5.713,5.713,0,0,0,0,11.426H7.744v1.9a5.873,5.873,0,0,0,1.643,4.073A5.6,5.6,0,0,0,13.457,65H51.67a13.413,13.413,0,0,0,9.521-22.776ZM5.713,15.361a1.9,1.9,0,0,1,0-3.809H9.648a1.9,1.9,0,0,1,0,3.809Zm0,19.043a1.9,1.9,0,0,1,0-3.809H9.648a1.9,1.9,0,0,1,0,3.809ZM9.648,53.447H5.713a1.9,1.9,0,0,1,0-3.809H9.648a1.9,1.9,0,0,1,0,3.809Zm3.809,7.744a2.023,2.023,0,0,1-1.9-2.031V56.928a5.712,5.712,0,0,0,0-10.771V37.885a5.712,5.712,0,0,0,0-10.771V18.842a5.712,5.712,0,0,0,0-10.771V5.713a1.906,1.906,0,0,1,1.9-1.9H55.479a1.906,1.906,0,0,1,1.9,1.9V39.5A13.327,13.327,0,0,0,38.34,51.543a13.48,13.48,0,0,0,4.048,9.648Zm38.213,0a9.585,9.585,0,1,1,9.521-9.648A9.6,9.6,0,0,1,51.67,61.191Z" fill="#f39322"/><g transform="translate(38.34 15.361)"><path d="M315.33,121H303.9a1.9,1.9,0,1,0,0,3.809H315.33a1.9,1.9,0,1,0,0-3.809Z" transform="translate(-302 -121)" fill="#f39322"/></g><g transform="translate(38.34 30.596)"><path d="M315.33,241H303.9a1.9,1.9,0,1,0,0,3.809H315.33a1.9,1.9,0,1,0,0-3.809Z" transform="translate(-302 -241)" fill="#f39322"/></g><g transform="translate(49.766 45.83)"><path d="M397.713,364.809h-1.9v-1.9a1.9,1.9,0,0,0-3.809,0v3.809a1.9,1.9,0,0,0,1.9,1.9h3.809a1.9,1.9,0,0,0,0-3.809Z" transform="translate(-392 -361)" fill="#f39322"/></g><g transform="translate(18.634 11.553)"><path d="M161.995,91.557a1.9,1.9,0,0,0-2.693,0l-6.271,6.271-3-3a1.9,1.9,0,1,0-2.693,2.693l4.344,4.344a1.9,1.9,0,0,0,2.693,0l7.617-7.617A1.9,1.9,0,0,0,161.995,91.557Z" transform="translate(-146.783 -91)" fill="#f39322"/></g><g transform="translate(18.634 26.787)"><path d="M161.995,211.557a1.9,1.9,0,0,0-2.693,0l-6.271,6.271-3-3a1.9,1.9,0,1,0-2.693,2.693l4.344,4.344a1.9,1.9,0,0,0,2.693,0l7.617-7.617A1.9,1.9,0,0,0,161.995,211.557Z" transform="translate(-146.783 -211)" fill="#f39322"/></g><g transform="translate(18.634 42.021)"><path d="M161.995,331.557a1.9,1.9,0,0,0-2.693,0l-6.271,6.271-3-3a1.9,1.9,0,1,0-2.693,2.693l4.344,4.344a1.9,1.9,0,0,0,2.693,0l7.617-7.617A1.9,1.9,0,0,0,161.995,331.557Z" transform="translate(-146.783 -331)" fill="#f39322"/></g></g></g></svg>