<svg xmlns="http://www.w3.org/2000/svg" width="512.001" height="512.002" viewBox="0 0 512.001 512.002">
  <g id="Group_584" data-name="Group 584" transform="translate(-7858 1282)">
    <g id="social-care" transform="translate(7857.999 -1282)">
      <g id="Group_565" data-name="Group 565">
        <g id="Group_564" data-name="Group 564">
          <path id="Path_190" data-name="Path 190" d="M109.834,496.21,94.779,475a10,10,0,1,0-16.308,11.577l15.055,21.207a10,10,0,1,0,16.308-11.578Z" fill="#fff"/>
        </g>
      </g>
      <g id="Group_567" data-name="Group 567">
        <g id="Group_566" data-name="Group 566">
          <path id="Path_191" data-name="Path 191" d="M225.206,499.946l-16.384-78.088A147.269,147.269,0,0,0,146.539,329.4l-34.981-23.522a35.189,35.189,0,0,0-44.6,4.553v-120.5a33.476,33.476,0,0,0-54.427-26.11A33.317,33.317,0,0,0,0,189.938V344.99a96.865,96.865,0,0,0,17.975,56.371l17.833,25.121A10,10,0,1,0,52.117,414.9L34.284,389.783A76.97,76.97,0,0,1,20,344.989V189.938a13.476,13.476,0,1,1,26.952,0V312.954a69.871,69.871,0,0,0,18.021,46.913c.5.6,1.01,1.188,1.551,1.761,6.641,7.037,14.449,15.329,21.8,23.145L98.623,395.73c.033.035.069.065.1.1,8.807,9.367,15.3,16.284,15.438,16.428a10,10,0,1,0,14.578-13.691c-.182-.194-11.888-12.659-25.256-26.868l-22.929-24.4c-.058-.062-.111-.127-.169-.189a16.873,16.873,0,0,1,.326-22.115,15.119,15.119,0,0,1,19.686-2.513L135.379,346a127.368,127.368,0,0,1,53.869,79.965l16.385,78.089a10,10,0,1,0,19.573-4.108Z" fill="#fff"/>
        </g>
      </g>
      <g id="Group_569" data-name="Group 569">
        <g id="Group_568" data-name="Group 568">
          <path id="Path_192" data-name="Path 192" d="M74.089,445.858l-.064-.09a10,10,0,0,0-16.281,11.616l.064.09a10,10,0,0,0,16.281-11.616Z" fill="#fff"/>
        </g>
      </g>
      <g id="Group_571" data-name="Group 571">
        <g id="Group_570" data-name="Group 570">
          <path id="Path_193" data-name="Path 193" d="M499.475,163.829a33.477,33.477,0,0,0-54.427,26.11v120.5a35.189,35.189,0,0,0-44.605-4.553L365.462,329.4a147.263,147.263,0,0,0-62.283,92.455L286.8,499.947a10,10,0,1,0,19.573,4.106l16.384-78.089A127.37,127.37,0,0,1,376.621,346L411.6,322.479a15.118,15.118,0,0,1,19.686,2.512,16.874,16.874,0,0,1,.347,22.092c-.064.07-.125.142-.189.212L383.26,398.566a10,10,0,1,0,14.578,13.691c.136-.144,41-43.591,47.639-50.628.541-.573,1.053-1.164,1.551-1.761a69.876,69.876,0,0,0,18.021-46.913V189.938a13.477,13.477,0,1,1,26.953,0V344.99a76.97,76.97,0,0,1-14.283,44.794L402.168,496.211a10,10,0,1,0,16.308,11.578l75.551-106.427A96.865,96.865,0,0,0,512,344.991V189.938A33.326,33.326,0,0,0,499.475,163.829Z" fill="#fff"/>
        </g>
      </g>
      <g id="Group_573" data-name="Group 573">
        <g id="Group_572" data-name="Group 572">
          <path id="Path_194" data-name="Path 194" d="M382.658,191.66l-17.791-4.25v-3.19a44.727,44.727,0,0,0,19.145-36.671V124.42A44.721,44.721,0,0,0,310.218,90.4,58.389,58.389,0,0,0,202,90.484a44.72,44.72,0,0,0-73.888,33.934v23.129a44.727,44.727,0,0,0,19.145,36.671v3.19l-17.791,4.25A46.847,46.847,0,0,0,93.39,237.37v18.676a10,10,0,0,0,10,10h45.952c-.071,1.213-.12,2.432-.12,3.661v35.958a10,10,0,0,0,10,10h60.11a10,10,0,1,0,0-20H209V275a10,10,0,0,0-20,0v20.667H169.223V269.709a41.4,41.4,0,0,1,31.854-40.39l27.442-6.576,18.365,41.782a10,10,0,0,0,9.153,5.976h0a10,10,0,0,0,9.154-5.975l18.346-41.72,27.355,6.535a41.4,41.4,0,0,1,31.883,40.4v25.929H323V275a10,10,0,0,0-20,0v20.667H291.666a10,10,0,0,0,0,20h61.111a10,10,0,0,0,10-10V269.738c0-1.239-.05-2.467-.122-3.69h46.082a10,10,0,0,0,10-10V237.372A46.845,46.845,0,0,0,382.658,191.66Zm-43.4-92a24.788,24.788,0,0,1,24.7,23.123h-13.9a72.889,72.889,0,0,1-33.529-8.172A24.789,24.789,0,0,1,339.256,99.662ZM314.5,146.087c.012-.487.037-.972.037-1.462v-8.906a92.891,92.891,0,0,0,35.518,7.066h13.957v4.763a24.756,24.756,0,1,1-49.512,0ZM217.716,112.41h0a38.412,38.412,0,0,1,76.336-6.1l-16.835-9.891a10,10,0,0,0-12.73,2.2,43.084,43.084,0,0,1-33.1,15.449H217.716V112.41ZM172.871,99.662a24.792,24.792,0,0,1,22.73,14.95,72.892,72.892,0,0,1-33.529,8.172h-13.9A24.789,24.789,0,0,1,172.871,99.662Zm-24.756,43.122h13.957a92.9,92.9,0,0,0,35.555-7.081v11.843a24.756,24.756,0,0,1-49.512,0v-4.763Zm48.3,67.085a61.329,61.329,0,0,0-42.495,36.178H113.39v-8.676a26.911,26.911,0,0,1,20.725-26.26l25.468-6.084a10,10,0,0,0,7.677-9.726v-3.362a43.41,43.41,0,0,0,11.181.005V194.8c-.007.149-.01.3-.011.447a10.016,10.016,0,0,0,8.126,9.839l14.917,3.574Zm27.894-15.524a46.92,46.92,0,0,0-8.007-2.7l-17.864-4.281v-3.116a45.121,45.121,0,0,0,8.667-7.918,58.871,58.871,0,0,0,17.2,17.244v.771Zm43.432,14.693-11.7,26.615L244.312,208.97v-7.136a58.606,58.606,0,0,0,23.431.038Zm-11.617-26a38.452,38.452,0,0,1-38.41-38.41V134.063h13.669a63.008,63.008,0,0,0,42.492-16.415L294.5,129.764v16.324A38.449,38.449,0,0,1,256.126,183.035Zm31.617,11.342V193.7a58.851,58.851,0,0,0,17.347-17.286,45.112,45.112,0,0,0,8.594,7.834v3.116l-17.865,4.281A47.088,47.088,0,0,0,287.743,194.377Zm110.993,51.67h-40.67a61.317,61.317,0,0,0-42.525-36.159l-5.021-1.2,15-3.594a10.01,10.01,0,0,0,8.17-9.848c0-.078,0-.157,0-.235v-3.068a43.41,43.41,0,0,0,11.181-.005V195.3a10,10,0,0,0,7.677,9.726l25.468,6.084a26.913,26.913,0,0,1,20.726,26.26v8.676Z" fill="#fff"/>
        </g>
      </g>
      <g id="Group_575" data-name="Group 575">
        <g id="Group_574" data-name="Group 574">
          <path id="Path_195" data-name="Path 195" d="M263.069,298.59A10,10,0,1,0,266,305.67,10.08,10.08,0,0,0,263.069,298.59Z" fill="#fff"/>
        </g>
      </g>
      <g id="Group_577" data-name="Group 577">
        <g id="Group_576" data-name="Group 576">
          <path id="Path_196" data-name="Path 196" d="M255.993,0a10,10,0,0,0-10,10V24.963a10,10,0,1,0,20,0V10A10,10,0,0,0,255.993,0Z" fill="#fff"/>
        </g>
      </g>
      <g id="Group_579" data-name="Group 579">
        <g id="Group_578" data-name="Group 578">
          <path id="Path_197" data-name="Path 197" d="M219.157,32.619l-10.49-10.48a10,10,0,1,0-14.135,14.148l10.491,10.48a10,10,0,1,0,14.134-14.148Z" fill="#fff"/>
        </g>
      </g>
      <g id="Group_581" data-name="Group 581">
        <g id="Group_580" data-name="Group 580">
          <path id="Path_198" data-name="Path 198" d="M317.222,22.4a10,10,0,0,0-14.142.007L292.671,32.821A10,10,0,1,0,306.82,46.956l10.409-10.419A10,10,0,0,0,317.222,22.4Z" fill="#fff"/>
        </g>
      </g>
    </g>
  </g>
</svg>
