<svg xmlns="http://www.w3.org/2000/svg" width="512" height="512" viewBox="0 0 512 512">
  <g id="Group_585" data-name="Group 585" transform="translate(-7346 1961)">
    <g id="holding-hands" transform="translate(7346 -1961)">
      <path id="Path_180" data-name="Path 180" d="M502,306H491.388a49.57,49.57,0,0,0-14.035-27.539l-16.567-16.576a29.724,29.724,0,0,1-8.567-17.62A29.837,29.837,0,0,0,472,216.21a30.327,30.327,0,0,0-7.609-20.14A29.666,29.666,0,0,0,472,176.21a30.327,30.327,0,0,0-7.609-20.14A29.666,29.666,0,0,0,472,136.21a30.323,30.323,0,0,0-7.61-20.14A29.667,29.667,0,0,0,472,96.21a30.234,30.234,0,0,0-20-28.534V10A10,10,0,0,0,442,0H316a10,10,0,0,0-10,10V20.5a50.834,50.834,0,0,0-28.581,14.353l-16.57,16.57A29.782,29.782,0,0,1,243.993,59.9C239.633,48.315,228.623,40,216,40a29.381,29.381,0,0,0-20,8.075,28.805,28.805,0,0,0-40,0,28.805,28.805,0,0,0-40,0A29.381,29.381,0,0,0,96,40c-12.6,0-23.668,8.366-28.026,20H10A10,10,0,0,0,0,70V196a10,10,0,0,0,10,10H20.336a49.563,49.563,0,0,0,14.31,29.619L51.213,252.2a29.73,29.73,0,0,1,8.265,15.622C47.68,272.083,39,283.363,39,296.21a29.143,29.143,0,0,0,7.965,19.972A29.7,29.7,0,0,0,39,336.21a29.142,29.142,0,0,0,7.965,19.972A29.7,29.7,0,0,0,39,376.21a29.144,29.144,0,0,0,7.965,19.972A29.7,29.7,0,0,0,39,416.21c0,13.117,8.807,24.28,21,28.247V502a10,10,0,0,0,10,10H196a10,10,0,0,0,10-10V491.728a50.4,50.4,0,0,0,28.581-14.167l16.57-16.57a29.765,29.765,0,0,1,15.071-8.152A29.974,29.974,0,0,0,316,471.587a29.931,29.931,0,0,0,40,0,29.931,29.931,0,0,0,40,0A29.958,29.958,0,0,0,444.675,458H502a10,10,0,0,0,10-10V427a10,10,0,1,0-20,0v11H446V325.92c10.362.032,38.131.15,46,0V337a10,10,0,1,0,20,0V316a10,10,0,0,0-10-10ZM326,20H432V66H326ZM274.991,65.562l16.57-16.57A30.88,30.88,0,0,1,306,40.834V76a10,10,0,0,0,10,10h126.21A10.018,10.018,0,0,1,452,96.21a9.687,9.687,0,0,1-9.79,9.79h-40a10,10,0,0,0,0,20h40A10.018,10.018,0,0,1,452,136.21a9.687,9.687,0,0,1-9.79,9.79h-40a10,10,0,0,0,0,20h40A10.018,10.018,0,0,1,452,176.21a9.687,9.687,0,0,1-9.79,9.79h-40a10,10,0,0,0,0,20h40A10.018,10.018,0,0,1,452,216.21a9.686,9.686,0,0,1-9.79,9.79H321.06A49.936,49.936,0,0,1,285.7,211.559c-2.706-2.136-14.66-18.4-39.7-23.772V79.8a49.622,49.622,0,0,0,28.99-14.235Zm-6.756,239.075c-17.047-4.371-24.8-15.475-27.8-17.931a70.905,70.905,0,0,0-32.554-18.559c4.588-16.284,15.192-23.74,17.62-26.67a70.049,70.049,0,0,0,18.647-33.57c16.843,4.467,24.4,15.323,27.407,17.794a69.44,69.44,0,0,0,33.05,18.361c-4.22,17.577-15.816,25.718-18.113,28.54a70.277,70.277,0,0,0-18.26,32.035ZM20,80H66V186H20ZM48.786,221.475A29.743,29.743,0,0,1,40.548,206H76a10,10,0,0,0,10-10s.008-125.486.012-125.6C86.238,64.764,90.813,60,96,60c5.327,0,10,5.061,10,10.83v40a10,10,0,0,0,20,0v-40C126,65.06,130.673,60,136,60s10,5.061,10,10.83v40a10,10,0,1,0,20,0v-40C166,65.06,170.673,60,176,60s10,5.061,10,10.83v40a10,10,0,1,0,20,0v-40C206,65.06,210.673,60,216,60c5.152,0,9.818,4.91,9.985,10.507,0,.109.008.219.015.328V191.98a50.042,50.042,0,0,1-14.634,35.352c-2.145,2.7-17.966,14.338-23.573,38.668H79.459a49.572,49.572,0,0,0-14.106-27.949ZM186,492H80V446H186Zm51.009-45.151-16.57,16.57A30.217,30.217,0,0,1,206,471.414V436a10,10,0,0,0-10-10H69.79C64.042,426,59,421.425,59,416.21,59,410.866,64.143,406,69.79,406H110a10,10,0,0,0,0-20H69.79C64.042,386,59,381.425,59,376.21,59,370.866,64.143,366,69.79,366H110a10,10,0,0,0,0-20H69.79C64.042,346,59,341.425,59,336.21,59,330.866,64.143,326,69.79,326H110a10,10,0,0,0,0-20H69.79C64.042,306,59,301.425,59,296.21,59,290.866,64.143,286,69.79,286H190.94A50.319,50.319,0,0,1,226.3,300.852c2.93,2.316,14.6,18.437,39.7,23.809V432.623A49.6,49.6,0,0,0,237.009,446.849ZM436,306a10,10,0,0,0-10,10V449.15a10,10,0,1,1-20,.1v-46a10,10,0,0,0-20,0v46a10,10,0,0,1-20,0v-46a10,10,0,0,0-20,0v46a10,10,0,0,1-20,0v-46a10,10,0,0,0-20,0v46a10,10,0,0,1-20,0V322.1a50.148,50.148,0,0,1,14.634-35.352c2.246-2.865,18.892-14.9,24.016-40.748H432.285a49.569,49.569,0,0,0,14.361,30.029l16.567,16.576A29.778,29.778,0,0,1,470.969,306Z" fill="#fff"/>
      <circle id="Ellipse_15" data-name="Ellipse 15" cx="10" cy="10" r="10" transform="translate(492 372)" fill="#fff"/>
    </g>
  </g>
</svg>
