<svg xmlns="http://www.w3.org/2000/svg" width="512" height="477.145" viewBox="0 0 512 477.145">
  <g id="Group_583" data-name="Group 583" transform="translate(-7188 1188)">
    <g id="notebook" transform="translate(7188 -1188)">
      <path id="Path_181" data-name="Path 181" d="M377.711,0H47.438A10.038,10.038,0,0,0,37.4,10.039V39.391C15.8,42.328,0,55.059,0,70.766s15.8,28.441,37.4,31.379v19.25C15.8,124.332,0,137.063,0,152.773s15.8,28.441,37.4,31.379V203.4C15.8,206.34,0,219.07,0,234.781s15.8,28.441,37.4,31.379v19.25C15.8,288.348,0,301.078,0,316.789s15.8,28.441,37.4,31.379v19.246C15.8,370.352,0,383.086,0,398.793s15.8,28.441,37.4,31.379v36.934a10.038,10.038,0,0,0,10.039,10.039H377.711a10.041,10.041,0,0,0,10.039-10.039V10.04A10.041,10.041,0,0,0,377.711,0ZM20.078,70.766c0-3.734,6.629-8.969,17.32-11.043v22.09c-10.691-2.074-17.32-7.309-17.32-11.047Zm0,82.008c0-3.734,6.629-8.973,17.32-11.043v22.086c-10.691-2.07-17.32-7.309-17.32-11.043Zm0,82.008c0-3.738,6.629-8.973,17.32-11.043v22.086c-10.691-2.07-17.32-7.309-17.32-11.043Zm0,82.008c0-3.738,6.629-8.977,17.32-11.047v22.09c-10.691-2.074-17.32-7.309-17.32-11.043Zm0,82c0-3.734,6.629-8.973,17.32-11.043v22.09c-10.691-2.074-17.32-7.309-17.32-11.047Zm347.594,58.273H57.477V387.937c10.148,2.188,16.406,7.227,16.406,10.855a10.039,10.039,0,0,0,20.078,0c0-15.484-15.359-28.066-36.484-31.238V305.934c10.148,2.184,16.406,7.227,16.406,10.855a10.039,10.039,0,0,0,20.078,0c0-15.488-15.359-28.07-36.484-31.238V223.926c10.148,2.184,16.406,7.227,16.406,10.855a10.039,10.039,0,0,0,20.078,0c0-15.488-15.359-28.07-36.484-31.238V141.918c10.148,2.188,16.406,7.23,16.406,10.855a10.039,10.039,0,0,0,20.078,0c0-15.484-15.359-28.066-36.484-31.238V59.91c10.148,2.188,16.406,7.23,16.406,10.855a10.039,10.039,0,1,0,20.078,0c0-15.484-15.359-28.066-36.484-31.234V20.078h310.2Zm0,0" fill="#fff"/>
      <path id="Path_182" data-name="Path 182" d="M128.2,324.789H324.344a10.039,10.039,0,0,0,0-20.078H128.2a10.039,10.039,0,1,0,0,20.078Zm0,0" fill="#fff"/>
      <path id="Path_183" data-name="Path 183" d="M128.2,172.434H324.344a10.039,10.039,0,0,0,0-20.078H128.2a10.039,10.039,0,1,0,0,20.078Zm0,0" fill="#fff"/>
      <path id="Path_184" data-name="Path 184" d="M128.2,248.609H324.344a10.039,10.039,0,1,0,0-20.078H128.2a10.039,10.039,0,1,0,0,20.078Zm0,0" fill="#fff"/>
      <path id="Path_185" data-name="Path 185" d="M128.2,400.965H324.344a10.039,10.039,0,0,0,0-20.078H128.2a10.039,10.039,0,1,0,0,20.078Zm0,0" fill="#fff"/>
      <path id="Path_186" data-name="Path 186" d="M501.961,0H417.238A10.038,10.038,0,0,0,407.2,10.039V358.816c0,.078.008.152.012.227.008.309.027.613.063.914.012.109.031.219.051.328.043.273.09.547.156.82.023.1.051.207.078.309.082.293.172.578.277.859.02.055.031.105.051.16L450.25,470.761a10.039,10.039,0,0,0,18.7,0l42.363-108.328c.02-.055.031-.105.051-.16.105-.281.2-.566.277-.859.027-.1.055-.2.078-.3.063-.273.117-.551.156-.832.02-.105.035-.211.051-.316.035-.309.055-.621.063-.937,0-.066.008-.133.008-.2,0-.016,0-.031,0-.047V10.039A10.041,10.041,0,0,0,501.961,0ZM459.6,293.781a10.041,10.041,0,0,0-10.039,10.039v44.918H427.277V89.539h22.281V223.25a10.039,10.039,0,0,0,20.078,0V89.539h22.285v259.2H469.637V303.824A10.039,10.039,0,0,0,459.6,293.781Zm-32.32-273.7h64.645V69.461H427.277ZM459.6,439.539l-27.656-70.723h55.313Zm0,0" fill="#fff"/>
      <path id="Path_187" data-name="Path 187" d="M459.594,253.5a10.043,10.043,0,1,0,9.859,8.16A10.133,10.133,0,0,0,459.594,253.5Zm0,0" fill="#fff"/>
      <path id="Path_188" data-name="Path 188" d="M128.2,96.258H284.113a10.041,10.041,0,0,0,0-20.082H128.2a10.041,10.041,0,0,0,0,20.082Zm0,0" fill="#fff"/>
      <path id="Path_189" data-name="Path 189" d="M315.07,90.055a10.038,10.038,0,1,0,3.98-12.363,10.139,10.139,0,0,0-3.98,12.363Zm0,0" fill="#fff"/>
    </g>
  </g>
</svg>
