<svg id="checked" xmlns="http://www.w3.org/2000/svg" width="30" height="30" viewBox="0 0 30 30">
  <path id="Path_73" data-name="Path 73" d="M15,0A15,15,0,1,0,30,15,15.017,15.017,0,0,0,15,0Zm0,27.582A12.583,12.583,0,1,1,27.582,15,12.6,12.6,0,0,1,15,27.582Z" transform="translate(0 0)" fill="#41c796"/>
  <path id="Path_74" data-name="Path 74" d="M26.768,18.667l-7,7L17.2,23.107A1.208,1.208,0,1,0,15.5,24.816l3.417,3.417a1.207,1.207,0,0,0,1.709,0l7.856-7.856a1.209,1.209,0,0,0-1.709-1.709Z" transform="translate(-6.986 -8.45)" fill="#41c796"/>
</svg>
