<svg xmlns="http://www.w3.org/2000/svg" width="53.002" height="53" viewBox="0 0 53.002 53"><g transform="translate(0 -0.007)"><path d="M51.64,4.754a6.674,6.674,0,0,0-5.372-2.677h-.9V1.56a1.553,1.553,0,1,0-3.105,0V5.7a1.553,1.553,0,1,0,3.105,0V5.183h.9A3.623,3.623,0,0,1,49.752,9.8L45.631,24.225a9.426,9.426,0,0,1-18.127,0L23.383,9.8a3.623,3.623,0,0,1,3.484-4.618h.9V5.7a1.553,1.553,0,0,0,3.105,0V1.56a1.553,1.553,0,0,0-3.105,0v.518h-.9a6.728,6.728,0,0,0-6.47,8.577l4.121,14.424a12.437,12.437,0,0,0,4.5,6.562,12.7,12.7,0,0,0,1.465.952l4.529,10.689V44.4a5.5,5.5,0,0,1-11,0V33.753a8.9,8.9,0,0,0-17.8,0v3.676a7.764,7.764,0,1,0,3.105,0V33.753a5.8,5.8,0,1,1,11.594,0V44.4a8.605,8.605,0,0,0,17.21,0V43.281l4.529-10.689a12.687,12.687,0,0,0,1.465-.952,12.436,12.436,0,0,0,4.5-6.562l4.121-14.424a6.674,6.674,0,0,0-1.1-5.9ZM12.422,45.036a4.658,4.658,0,1,1-4.658-4.658A4.663,4.663,0,0,1,12.422,45.036Zm24.146-6.051-2.117-5a12.648,12.648,0,0,0,4.234,0Z" fill="#fff"/><ellipse cx="1.742" cy="1.307" rx="1.742" ry="1.307" transform="translate(5.585 43.932)" fill="#fff"/></g></svg>