<svg xmlns="http://www.w3.org/2000/svg" width="67.136" height="67.257" viewBox="0 0 67.136 67.257"><path d="M42.142,13.549a15.062,15.062,0,0,1,11.9,11.9M42.142,1.5A27.111,27.111,0,0,1,66.09,25.418M63.078,49.457v9.037a6.025,6.025,0,0,1-6.567,6.025,59.614,59.614,0,0,1-26-9.248A58.741,58.741,0,0,1,12.44,37.2,59.615,59.615,0,0,1,3.192,11.079,6.025,6.025,0,0,1,9.187,4.512h9.037a6.025,6.025,0,0,1,6.025,5.181,38.678,38.678,0,0,0,2.109,8.465A6.025,6.025,0,0,1,25,24.514L21.176,28.34A48.2,48.2,0,0,0,39.25,46.414l3.826-3.826a6.025,6.025,0,0,1,6.356-1.356A38.679,38.679,0,0,0,57.9,43.342,6.025,6.025,0,0,1,63.078,49.457Z" transform="translate(-1.165 0.709)" fill="none" stroke="#fff" stroke-linecap="round" stroke-linejoin="round" stroke-width="4"/></svg>