<svg xmlns="http://www.w3.org/2000/svg" width="906.587" height="96.022" viewBox="0 0 906.587 96.022"><g transform="translate(-448.541 -6917.599)"><path d="M4685.928,5566.968s70.349,85.759,250.577,0,328.3,0,328.3,0,237.594,98.73,326.957,0" transform="translate(-4237 1395)" fill="none" stroke="#a5a5a5" stroke-width="1" stroke-dasharray="5"/><g transform="matrix(0.07, 0.998, -0.998, 0.07, 581.96, 6991.03)" fill="#a5a5a5"><path d="M 14.16491603851318 13.5 L 0.8350850939750671 13.5 L 7.500000476837158 1.05882465839386 L 14.16491603851318 13.5 Z" stroke="none"/><path d="M 7.500000476837158 2.117649078369141 L 1.670169830322266 13 L 13.32983112335205 13 L 7.500000476837158 2.117649078369141 M 7.500000476837158 0 L 15 14 L 9.5367431640625e-07 14 L 7.500000476837158 0 Z" stroke="none" fill="#a5a5a5"/></g><g transform="translate(914.476 6919.547) rotate(98)" fill="#a5a5a5"><path d="M 14.16491603851318 13.5 L 0.8350850939750671 13.5 L 7.500000476837158 1.05882465839386 L 14.16491603851318 13.5 Z" stroke="none"/><path d="M 7.500000476837158 2.117649078369141 L 1.670169830322266 13 L 13.32983112335205 13 L 7.500000476837158 2.117649078369141 M 7.500000476837158 0 L 15 14 L 9.5367431640625e-07 14 L 7.500000476837158 0 Z" stroke="none" fill="#a5a5a5"/></g><g transform="matrix(0.017, 1, -1, 0.017, 1233.368, 6998.379)" fill="#a5a5a5"><path d="M 14.16491603851318 13.5 L 0.8350850939750671 13.5 L 7.500000476837158 1.05882465839386 L 14.16491603851318 13.5 Z" stroke="none"/><path d="M 7.500000476837158 2.117649078369141 L 1.670169830322266 13 L 13.32983112335205 13 L 7.500000476837158 2.117649078369141 M 7.500000476837158 0 L 15 14 L 9.5367431640625e-07 14 L 7.500000476837158 0 Z" stroke="none" fill="#a5a5a5"/></g></g></svg>