<svg xmlns="http://www.w3.org/2000/svg" width="60.683" height="79.097" viewBox="0 0 60.683 79.097"><g transform="translate(-738 -684)"><g transform="translate(75 -21.772)"><g transform="translate(663 705.772)"><path d="M107.162,79.1a4.724,4.724,0,0,1-4.136-2.4L103,76.654l-19.614-35.9a27.537,27.537,0,0,1,.359-27.209A26.842,26.842,0,0,1,106.554.006c.405-.008.812-.008,1.217,0a26.842,26.842,0,0,1,22.809,13.539,27.537,27.537,0,0,1,.359,27.209l-19.614,35.9-.027.048a4.723,4.723,0,0,1-4.135,2.4Zm0-74.154q-.255,0-.508.005A21.935,21.935,0,0,0,88.022,16.023a22.63,22.63,0,0,0-.3,22.36l19.438,35.578L126.6,38.383a22.629,22.629,0,0,0-.3-22.36A21.935,21.935,0,0,0,107.67,4.948q-.253-.005-.508-.005Z" transform="translate(-79.968 0.001)" fill="#41c796"/><path d="M195.123,110.246a11.123,11.123,0,1,1,11.123-11.123A11.136,11.136,0,0,1,195.123,110.246Zm0-17.3a6.179,6.179,0,1,0,6.179,6.179A6.186,6.186,0,0,0,195.123,92.944Z" transform="translate(-167.928 -74.405)" fill="#41c796"/></g><circle cx="11.07" cy="11.07" r="11.07" transform="translate(701.542 708.419)" fill="#41c796" opacity="0.28"/></g></g></svg>