<svg xmlns="http://www.w3.org/2000/svg" width="162" height="176" viewBox="0 0 162 176"><circle cx="6.5" cy="6.5" r="6.5" transform="translate(65 9)" fill="#8dc043"/><line x1="13.008" y2="14.866" transform="translate(86.675 20.839)" fill="none" stroke="#b7b7b6" stroke-width="2"/><line x1="18.052" y2="0.265" transform="translate(75.791 13.937)" fill="none" stroke="#b7b7b6" stroke-width="2"/><line x1="13.539" y1="4.247" transform="translate(55.881 9.689)" fill="none" stroke="#b7b7b6" stroke-width="2"/><line y1="20.972" x2="20.706" transform="translate(30.661 11.017)" fill="none" stroke="#b7b7b6" stroke-width="2"/><line x1="4.247" y1="11.15" transform="translate(53.491 36.502)" fill="none" stroke="#b7b7b6" stroke-width="2"/><line x2="16.724" y2="5.309" transform="translate(34.643 48.713)" fill="none" stroke="#b7b7b6" stroke-width="2"/><line x1="4.778" y1="17.521" transform="translate(29.865 58.27)" fill="none" stroke="#b7b7b6" stroke-width="2"/><line y1="13.804" x2="5.575" transform="translate(9.955 59.597)" fill="none" stroke="#b7b7b6" stroke-width="2"/><line x1="17.521" y2="13.273" transform="translate(15.53 85.347)" fill="none" stroke="#b7b7b6" stroke-width="2"/><line x2="2.92" y2="16.459" transform="translate(64.641 67.03)" fill="none" stroke="#b7b7b6" stroke-width="2"/><line x1="12.742" y2="8.76" transform="translate(43.669 108.178)" fill="none" stroke="#b7b7b6" stroke-width="2"/><line x1="31.856" y1="5.575" transform="translate(45.527 124.105)" fill="none" stroke="#b7b7b6" stroke-width="2"/><line x1="26.281" y2="27.874" transform="translate(82.693 99.948)" fill="none" stroke="#b7b7b6" stroke-width="2"/><line x1="16.193" y2="3.717" transform="translate(112.69 127.822)" fill="none" stroke="#b7b7b6" stroke-width="2"/><line x1="11.681" y1="12.742" transform="translate(122.778 97.824)" fill="none" stroke="#b7b7b6" stroke-width="2"/><line x1="0.531" y2="19.114" transform="translate(147.732 87.737)" fill="none" stroke="#b7b7b6" stroke-width="2"/><line x1="8.229" y2="17.521" transform="translate(131.273 137.113)" fill="none" stroke="#b7b7b6" stroke-width="2"/><line y1="2.389" x2="14.601" transform="translate(139.503 157.82)" fill="none" stroke="#b7b7b6" stroke-width="2"/><line x1="16.99" y2="3.982" transform="translate(101.01 55.615)" fill="none" stroke="#b7b7b6" stroke-width="2"/><line x1="43.802" y1="18.317" transform="translate(101.01 65.172)" fill="none" stroke="#b7b7b6" stroke-width="2"/><line x2="10.619" y2="14.866" transform="translate(110.832 20.308)" fill="none" stroke="#b7b7b6" stroke-width="2"/><line x1="15.397" y2="12.211" transform="translate(69.419 39.156)" fill="none" stroke="#b7b7b6" stroke-width="2"/><ellipse cx="19.5" cy="20.5" rx="19.5" ry="20.5" transform="translate(0 24)" fill="#9a2384"/><ellipse cx="7" cy="6.5" rx="7" ry="6.5" transform="translate(0 72)" fill="#9a2384"/><ellipse cx="13" cy="13.5" rx="13" ry="13.5" transform="translate(47 44)" fill="#9a2384"/><ellipse cx="5" cy="5.5" rx="5" ry="5.5" transform="translate(47 3)" fill="#9a2384"/><ellipse cx="13" cy="13.5" rx="13" ry="13.5" transform="translate(90)" fill="#009245"/><ellipse cx="10" cy="9.5" rx="10" ry="9.5" transform="translate(84 54)" fill="#009245"/><ellipse cx="6" cy="6.5" rx="6" ry="6.5" transform="translate(79 31)" fill="#8dc043"/><circle cx="18.5" cy="18.5" r="18.5" transform="translate(113 30)" fill="#8dc043"/><ellipse cx="8.5" cy="9" rx="8.5" ry="9" transform="translate(27 73)" fill="#0971b8"/><ellipse cx="5" cy="6" rx="5" ry="6" transform="translate(9 94)" fill="#2caae2"/><ellipse cx="13" cy="13.5" rx="13" ry="13.5" transform="translate(21 108)" fill="#0971b8"/><ellipse cx="19" cy="18.5" rx="19" ry="18.5" transform="translate(51 81)" fill="#2caae2"/><circle cx="13" cy="13" r="13" transform="translate(99 79)" fill="#f9b03c"/><circle cx="7.5" cy="7.5" r="7.5" transform="translate(101 124)" fill="#f9b03c"/><ellipse cx="13" cy="13.5" rx="13" ry="13.5" transform="translate(114 149)" fill="#f9b03c"/><ellipse cx="5" cy="4.5" rx="5" ry="4.5" transform="translate(142 81)" fill="#f39322"/><ellipse cx="19" cy="19.5" rx="19" ry="19.5" transform="translate(124 103)" fill="#f39322"/><circle cx="6" cy="6" r="6" transform="translate(149 151)" fill="#f39322"/><circle cx="8.5" cy="8.5" r="8.5" transform="translate(42 22)" fill="#a6529a"/><ellipse cx="5" cy="5.5" rx="5" ry="5.5" transform="translate(74 124)" fill="#2caae2"/></svg>