<svg xmlns="http://www.w3.org/2000/svg" width="70" height="75.575" viewBox="0 0 70 75.575"><g transform="translate(-1117 -686)"><g transform="translate(72.801 -45.624)" opacity="0.8"><circle cx="10.976" cy="10.976" r="10.976" transform="translate(1089.13 731.624)" fill="#191919" opacity="0.28"/><path d="M59.743,10.256a34.992,34.992,0,1,0,0,49.486A34.973,34.973,0,0,0,59.743,10.256Zm-1.463,44.5a35.075,35.075,0,0,0-5.227-3.871,56.592,56.592,0,0,0,2.111-13.654H65.452a30.256,30.256,0,0,1-7.171,17.525ZM4.548,37.229H14.836a56.592,56.592,0,0,0,2.111,13.654,35.075,35.075,0,0,0-5.227,3.871A30.257,30.257,0,0,1,4.548,37.229Zm7.172-21.985a35.075,35.075,0,0,0,5.227,3.871A56.592,56.592,0,0,0,14.836,32.77H4.548A30.257,30.257,0,0,1,11.719,15.244ZM32.77,19.576a30.3,30.3,0,0,1-10.394-2.634C24.267,12.074,27.752,6.235,32.77,4.788Zm0,4.468V32.77H19.3a52.54,52.54,0,0,1,1.691-11.561A34.758,34.758,0,0,0,32.77,24.044Zm0,13.185v8.726a34.758,34.758,0,0,0-11.782,2.836A52.54,52.54,0,0,1,19.3,37.229Zm0,13.194V65.211c-5.018-1.447-8.5-7.286-10.394-12.155A30.3,30.3,0,0,1,32.77,50.423Zm4.46,0a30.3,30.3,0,0,1,10.394,2.634c-1.891,4.869-5.376,10.708-10.394,12.155Zm0-4.468V37.229H50.7a52.539,52.539,0,0,1-1.691,11.561A34.758,34.758,0,0,0,37.23,45.955Zm0-13.185V24.044a34.758,34.758,0,0,0,11.782-2.836A52.539,52.539,0,0,1,50.7,32.77Zm0-13.194V4.788c5.018,1.447,8.5,7.286,10.394,12.155A30.3,30.3,0,0,1,37.23,19.576ZM47.246,7.014a30.4,30.4,0,0,1,7.9,5.048,30.649,30.649,0,0,1-3.587,2.723,33.573,33.573,0,0,0-4.317-7.77Zm-28.809,7.77a30.66,30.66,0,0,1-3.587-2.723,30.4,30.4,0,0,1,7.9-5.048,33.584,33.584,0,0,0-4.317,7.77Zm0,40.43a33.576,33.576,0,0,0,4.317,7.77,30.4,30.4,0,0,1-7.9-5.048A30.648,30.648,0,0,1,18.437,55.215Zm33.126,0a30.662,30.662,0,0,1,3.587,2.723,30.4,30.4,0,0,1-7.9,5.048,33.572,33.572,0,0,0,4.317-7.77Zm3.6-22.445a56.591,56.591,0,0,0-2.111-13.654,35.082,35.082,0,0,0,5.227-3.871A30.257,30.257,0,0,1,65.452,32.77Z" transform="translate(1044.199 737.2)" fill="#191919"/></g></g></svg>