<svg xmlns="http://www.w3.org/2000/svg" width="19.855" height="26.125" viewBox="0 0 19.855 26.125">
  <g id="Icon_ionic-ios-document" data-name="Icon ionic-ios-document" transform="translate(-7.313 -3.938)">
    <path id="Path_80" data-name="Path 80" d="M21.843,10.4h5.943a.323.323,0,0,0,.327-.327h0a1.933,1.933,0,0,0-.7-1.5L22.43,4.428a2.1,2.1,0,0,0-1.345-.483h0a.482.482,0,0,0-.483.483V9.163A1.24,1.24,0,0,0,21.843,10.4Z" transform="translate(-0.945 0)" fill="#fff"/>
    <path id="Path_81" data-name="Path 81" d="M17.958,9.163V3.938H9.4a2.1,2.1,0,0,0-2.09,2.09V27.973a2.1,2.1,0,0,0,2.09,2.09H25.078a2.1,2.1,0,0,0,2.09-2.09V12.1H20.9A2.943,2.943,0,0,1,17.958,9.163Z" fill="#fff"/>
  </g>
</svg>
