<svg xmlns="http://www.w3.org/2000/svg" width="23.625" height="27" viewBox="0 0 23.625 27">
  <path id="Icon_awesome-building" data-name="Icon awesome-building" d="M22.992,25.313H21.938V1.266A1.266,1.266,0,0,0,20.672,0H2.953A1.266,1.266,0,0,0,1.688,1.266V25.313H.633A.633.633,0,0,0,0,25.945V27H23.625V25.945A.633.633,0,0,0,22.992,25.313ZM6.75,4.008a.633.633,0,0,1,.633-.633H9.492a.633.633,0,0,1,.633.633V6.117a.633.633,0,0,1-.633.633H7.383a.633.633,0,0,1-.633-.633Zm0,5.063a.633.633,0,0,1,.633-.633H9.492a.633.633,0,0,1,.633.633V11.18a.633.633,0,0,1-.633.633H7.383a.633.633,0,0,1-.633-.633Zm2.742,7.8H7.383a.633.633,0,0,1-.633-.633V14.133a.633.633,0,0,1,.633-.633H9.492a.633.633,0,0,1,.633.633v2.109A.633.633,0,0,1,9.492,16.875ZM13.5,25.313H10.125v-4.43a.633.633,0,0,1,.633-.633h2.109a.633.633,0,0,1,.633.633Zm3.375-9.07a.633.633,0,0,1-.633.633H14.133a.633.633,0,0,1-.633-.633V14.133a.633.633,0,0,1,.633-.633h2.109a.633.633,0,0,1,.633.633Zm0-5.062a.633.633,0,0,1-.633.633H14.133a.633.633,0,0,1-.633-.633V9.07a.633.633,0,0,1,.633-.633h2.109a.633.633,0,0,1,.633.633Zm0-5.062a.633.633,0,0,1-.633.633H14.133a.633.633,0,0,1-.633-.633V4.008a.633.633,0,0,1,.633-.633h2.109a.633.633,0,0,1,.633.633Z" fill="#41c796"/>
</svg>
