<svg xmlns="http://www.w3.org/2000/svg" width="29.464" height="27.5" viewBox="0 0 29.464 27.5">
  <path id="Icon_awesome-university" data-name="Icon awesome-university" d="M30.589,8.143v.982a.491.491,0,0,1-.491.491H28.625v.737a.737.737,0,0,1-.737.737H3.826a.737.737,0,0,1-.737-.737V9.616H1.616a.491.491,0,0,1-.491-.491V8.143a.491.491,0,0,1,.3-.454l14.241-5.4a.491.491,0,0,1,.376,0l14.241,5.4A.491.491,0,0,1,30.589,8.143ZM29.116,26.8H2.6a1.473,1.473,0,0,0-1.473,1.473v.982a.491.491,0,0,0,.491.491H30.1a.491.491,0,0,0,.491-.491v-.982A1.473,1.473,0,0,0,29.116,26.8ZM6.036,12.071V23.857H3.826a.737.737,0,0,0-.737.737v1.228H28.625V24.594a.737.737,0,0,0-.737-.737h-2.21V12.071H21.75V23.857H17.821V12.071H13.893V23.857H9.964V12.071Z" transform="translate(-1.125 -2.25)" fill="#41c796"/>
</svg>
