<svg xmlns="http://www.w3.org/2000/svg" width="23.19" height="27.828" viewBox="0 0 23.19 27.828">
  <path id="Icon_material-contacts" data-name="Icon material-contacts" d="M23.871,0H5.319V2.319H23.871ZM5.319,27.828H23.871V25.509H5.319ZM23.871,4.638H5.319A2.326,2.326,0,0,0,3,6.957V20.871A2.326,2.326,0,0,0,5.319,23.19H23.871a2.326,2.326,0,0,0,2.319-2.319V6.957A2.326,2.326,0,0,0,23.871,4.638ZM14.6,7.827a2.609,2.609,0,1,1-2.609,2.609A2.613,2.613,0,0,1,14.6,7.827Zm5.8,11.885H8.8V17.972c0-1.936,3.861-2.9,5.8-2.9s5.8.962,5.8,2.9Z" transform="translate(-3)" fill="#41c796"/>
</svg>
