<svg xmlns="http://www.w3.org/2000/svg" width="724" height="785" viewBox="0 0 724 785">
  <g id="logo-while" transform="translate(0.143 0.249)">
    <ellipse id="Ellipse_10" data-name="Ellipse 10" cx="31.5" cy="32" rx="31.5" ry="32" transform="translate(374.857 37.751)" fill="#fff"/>
    <line id="Line_2" data-name="Line 2" x2="58.045" y2="66.338" transform="translate(278.776 93.095)" fill="none" stroke="#fff" stroke-width="5"/>
    <line id="Line_4" data-name="Line 4" x2="80.553" y2="1.185" transform="translate(304.837 62.295)" fill="none" stroke="#fff" stroke-width="5"/>
    <line id="Line_5" data-name="Line 5" y1="18.954" x2="60.415" transform="translate(413.82 43.341)" fill="none" stroke="#fff" stroke-width="5"/>
    <line id="Line_6" data-name="Line 6" x1="92.399" y1="93.583" transform="translate(494.373 49.264)" fill="none" stroke="#fff" stroke-width="5"/>
    <line id="Line_7" data-name="Line 7" y1="49.753" x2="18.954" transform="translate(465.943 162.986)" fill="none" stroke="#fff" stroke-width="5"/>
    <line id="Line_8" data-name="Line 8" x1="74.63" y2="23.692" transform="translate(494.373 217.478)" fill="none" stroke="#fff" stroke-width="5"/>
    <line id="Line_9" data-name="Line 9" y1="78.184" x2="21.323" transform="translate(569.003 260.123)" fill="none" stroke="#fff" stroke-width="5"/>
    <line id="Line_10" data-name="Line 10" x1="24.877" y1="61.599" transform="translate(654.294 266.046)" fill="none" stroke="#fff" stroke-width="5"/>
    <line id="Line_11" data-name="Line 11" x2="78.184" y2="59.23" transform="translate(576.111 380.953)" fill="none" stroke="#fff" stroke-width="5"/>
    <line id="Line_12" data-name="Line 12" x1="13.031" y2="73.445" transform="translate(422.112 299.215)" fill="none" stroke="#fff" stroke-width="5"/>
    <line id="Line_13" data-name="Line 13" x2="56.861" y2="39.092" transform="translate(471.866 482.828)" fill="none" stroke="#fff" stroke-width="5"/>
    <line id="Line_14" data-name="Line 14" y1="24.877" x2="142.152" transform="translate(378.282 553.904)" fill="none" stroke="#fff" stroke-width="5"/>
    <line id="Line_15" data-name="Line 15" x2="117.276" y2="124.383" transform="translate(237.315 446.106)" fill="none" stroke="#fff" stroke-width="5"/>
    <line id="Line_16" data-name="Line 16" x2="72.261" y2="16.584" transform="translate(148.469 570.489)" fill="none" stroke="#fff" stroke-width="5"/>
    <line id="Line_17" data-name="Line 17" y1="56.861" x2="52.122" transform="translate(123.593 436.629)" fill="none" stroke="#fff" stroke-width="5"/>
    <line id="Line_18" data-name="Line 18" x2="2.369" y2="85.291" transform="translate(61.994 391.614)" fill="none" stroke="#fff" stroke-width="5"/>
    <line id="Line_19" data-name="Line 19" x2="36.723" y2="78.184" transform="translate(101.085 611.95)" fill="none" stroke="#fff" stroke-width="5"/>
    <line id="Line_20" data-name="Line 20" x1="65.153" y1="10.661" transform="translate(35.932 704.349)" fill="none" stroke="#fff" stroke-width="5"/>
    <line id="Line_21" data-name="Line 21" x2="75.814" y2="17.769" transform="translate(197.038 248.277)" fill="none" stroke="#fff" stroke-width="5"/>
    <line id="Line_22" data-name="Line 22" y1="81.737" x2="195.459" transform="translate(77.393 290.923)" fill="none" stroke="#fff" stroke-width="5"/>
    <line id="Line_23" data-name="Line 23" x1="47.384" y2="66.338" transform="translate(181.638 90.725)" fill="none" stroke="#fff" stroke-width="5"/>
    <line id="Line_24" data-name="Line 24" x2="68.707" y2="54.492" transform="translate(345.113 174.832)" fill="none" stroke="#fff" stroke-width="5"/>
    <ellipse id="Ellipse_6" data-name="Ellipse 6" cx="89" cy="87.5" rx="89" ry="87.5" transform="translate(545.857 110.751)" fill="#fff"/>
    <circle id="Ellipse_7" data-name="Ellipse 7" cx="30.5" cy="30.5" r="30.5" transform="translate(662.857 319.751)" fill="#fff"/>
    <ellipse id="Ellipse_8" data-name="Ellipse 8" cx="58.5" cy="57.5" rx="58.5" ry="57.5" transform="translate(394.857 197.751)" fill="#fff"/>
    <circle id="Ellipse_9" data-name="Ellipse 9" cx="23.5" cy="23.5" r="23.5" transform="translate(468.857 16.751)" fill="#fff"/>
    <ellipse id="Ellipse_11" data-name="Ellipse 11" cx="59" cy="60" rx="59" ry="60" transform="translate(204.857 -0.249)" fill="#fff"/>
    <ellipse id="Ellipse_12" data-name="Ellipse 12" cx="42.5" cy="44" rx="42.5" ry="44" transform="translate(263.857 238.751)" fill="#fff"/>
    <ellipse id="Ellipse_13" data-name="Ellipse 13" cx="26" cy="25.5" rx="26" ry="25.5" transform="translate(318.857 141.751)" fill="#fff"/>
    <ellipse id="Ellipse_14" data-name="Ellipse 14" cx="83" cy="82.5" rx="83" ry="82.5" transform="translate(54.857 134.751)" fill="#fff"/>
    <ellipse id="Ellipse_16" data-name="Ellipse 16" cx="36" cy="37" rx="36" ry="37" transform="translate(529.857 329.751)" fill="#fff"/>
    <ellipse id="Ellipse_17" data-name="Ellipse 17" cx="23.5" cy="24" rx="23.5" ry="24" transform="translate(638.857 421.751)" fill="#fff"/>
    <ellipse id="Ellipse_18" data-name="Ellipse 18" cx="61.5" cy="62.5" rx="61.5" ry="62.5" transform="translate(511.857 479.751)" fill="#fff"/>
    <circle id="Ellipse_19" data-name="Ellipse 19" cx="85" cy="85" r="85" transform="translate(326.857 359.751)" fill="#fff"/>
    <circle id="Ellipse_20" data-name="Ellipse 20" cx="59" cy="59" r="59" transform="translate(162.857 350.751)" fill="#fff"/>
    <circle id="Ellipse_21" data-name="Ellipse 21" cx="33.5" cy="33.5" r="33.5" transform="translate(204.857 553.751)" fill="#fff"/>
    <ellipse id="Ellipse_22" data-name="Ellipse 22" cx="59.5" cy="59" rx="59.5" ry="59" transform="translate(97.857 666.751)" fill="#fff"/>
    <ellipse id="Ellipse_23" data-name="Ellipse 23" cx="20" cy="21" rx="20" ry="21" transform="translate(44.857 359.751)" fill="#fff"/>
    <ellipse id="Ellipse_24" data-name="Ellipse 24" cx="86.5" cy="86" rx="86.5" ry="86" transform="translate(-0.143 460.751)" fill="#fff"/>
    <ellipse id="Ellipse_25" data-name="Ellipse 25" cx="28.5" cy="27.5" rx="28.5" ry="27.5" transform="translate(3.857 672.751)" fill="#fff"/>
    <circle id="Ellipse_15" data-name="Ellipse 15" cx="40.5" cy="40.5" r="40.5" transform="translate(455.857 97.751)" fill="#fff"/>
    <circle id="Ellipse_26" data-name="Ellipse 26" cx="23.5" cy="23.5" r="23.5" transform="translate(343.857 554.751)" fill="#fff"/>
  </g>
</svg>
