<svg xmlns="http://www.w3.org/2000/svg" width="30.401" height="50.669" viewBox="0 0 30.401 50.669">
  <path id="salary" d="M27.868,22.234H26.6V15.267a.633.633,0,0,0-.633-.633H24.893a1.9,1.9,0,0,0-1.054.319l-1.214.809a.633.633,0,0,0-.176.878l.7,1.054a.633.633,0,0,0,.878.176l.037-.025v4.389H22.8a.633.633,0,0,0-.633.633v1.267a.633.633,0,0,0,.633.633h5.067a.633.633,0,0,0,.633-.633V22.867A.633.633,0,0,0,27.868,22.234ZM48.135,4.5H2.533A2.534,2.534,0,0,0,0,7.033V32.368A2.534,2.534,0,0,0,2.533,34.9h45.6a2.534,2.534,0,0,0,2.533-2.533V7.033A2.534,2.534,0,0,0,48.135,4.5ZM3.8,31.1V26.034A5.066,5.066,0,0,1,8.867,31.1Zm0-17.734V8.3H8.867A5.066,5.066,0,0,1,3.8,13.367Zm21.534,15.2c-4.2,0-7.6-3.97-7.6-8.867s3.4-8.867,7.6-8.867,7.6,3.97,7.6,8.867S29.53,28.568,25.334,28.568ZM46.869,31.1H41.8a5.066,5.066,0,0,1,5.067-5.067Zm0-17.734A5.066,5.066,0,0,1,41.8,8.3h5.067Z" transform="translate(34.901) rotate(90)" fill="#41c796" opacity="0.2"/>
</svg>
