<svg xmlns="http://www.w3.org/2000/svg" width="53.297" height="53.297" viewBox="0 0 53.297 53.297">
  <g id="click_2_" data-name="click (2)" transform="translate(0)">
    <path id="Path_29" data-name="Path 29" d="M217.113,208.28l-9.005-9.005,4.417-4.416a1.561,1.561,0,0,0-.61-2.585l-26.5-8.833a1.562,1.562,0,0,0-1.975,1.975l8.833,26.5a1.561,1.561,0,0,0,2.585.61l4.416-4.416,9.005,9.005a1.561,1.561,0,0,0,2.208,0l6.625-6.625A1.561,1.561,0,0,0,217.113,208.28Zm-7.729,5.521-9.005-9.005a1.561,1.561,0,0,0-2.208,0l-3.734,3.734L187.39,187.39l21.139,7.046-3.734,3.734a1.562,1.562,0,0,0,0,2.208l9.005,9.005Z" transform="translate(-164.273 -164.273)" fill="#fff"/>
    <path id="Path_30" data-name="Path 30" d="M181.561,12.492a1.561,1.561,0,0,0,1.561-1.561V1.561a1.561,1.561,0,1,0-3.123,0V10.93A1.561,1.561,0,0,0,181.561,12.492Z" transform="translate(-161.263)" fill="#fff"/>
    <path id="Path_31" data-name="Path 31" d="M55.386,53.178a1.561,1.561,0,0,0-2.208,2.208L59.8,62.011A1.561,1.561,0,0,0,62.011,59.8Z" transform="translate(-47.233 -47.232)" fill="#fff"/>
    <path id="Path_32" data-name="Path 32" d="M59.8,244.1l-6.625,6.625a1.561,1.561,0,0,0,2.208,2.208l6.625-6.625A1.561,1.561,0,0,0,59.8,244.1Z" transform="translate(-47.233 -218.278)" fill="#fff"/>
    <path id="Path_33" data-name="Path 33" d="M246.305,62.011l6.625-6.625a1.561,1.561,0,0,0-2.208-2.208L244.1,59.8a1.561,1.561,0,1,0,2.208,2.208Z" transform="translate(-218.278 -47.232)" fill="#fff"/>
    <path id="Path_34" data-name="Path 34" d="M12.492,181.561A1.561,1.561,0,0,0,10.93,180H1.561a1.561,1.561,0,1,0,0,3.123H10.93A1.561,1.561,0,0,0,12.492,181.561Z" transform="translate(0 -161.263)" fill="#fff"/>
  </g>
</svg>
