<?xml version="1.0" encoding="UTF-8"?>
<!DOCTYPE svg PUBLIC "-//W3C//DTD SVG 1.1//EN" "http://www.w3.org/Graphics/SVG/1.1/DTD/svg11.dtd">
<!-- Creator: CorelDRAW 2020 (64-Bit) -->
<svg xmlns="http://www.w3.org/2000/svg" xml:space="preserve" width="35.8776mm" height="42.0806mm" version="1.1" style="shape-rendering:geometricPrecision; text-rendering:geometricPrecision; image-rendering:optimizeQuality; fill-rule:evenodd; clip-rule:evenodd"
viewBox="0 0 301.62 353.77"
 xmlns:xlink="http://www.w3.org/1999/xlink"
 xmlns:xodm="http://www.corel.com/coreldraw/odm/2003">
 <defs>
  <style type="text/css">
   <![CDATA[
    .fil3 {fill:#4697CA;fill-rule:nonzero}
    .fil5 {fill:#47A03D;fill-rule:nonzero}
    .fil4 {fill:#FCC917;fill-rule:nonzero}
    .fil2 {fill:#FA803D;fill-rule:nonzero}
    .fil1 {fill:#9E4DAB;fill-rule:nonzero}
    .fil0 {fill:#A3A19E;fill-rule:nonzero}
   ]]>
  </style>
 </defs>
 <g id="Layer_x0020_1">
  <metadata id="CorelCorpID_0Corel-Layer"/>
  <g id="_2222654721568">
   <polygon class="fil0" points="120.37,52.6 118.7,50.14 151.55,27.87 153.21,30.33 "/>
   <polygon class="fil0" points="230.66,332.77 230.34,329.82 266.86,325.83 267.18,328.77 "/>
   <polygon class="fil0" points="228.35,314.34 225.93,312.63 250.66,277.54 253.08,279.25 "/>
   <polygon class="fil0" points="187.37,267.5 187,264.56 231.42,258.96 231.79,261.9 "/>
   <polygon class="fil0" points="247.97,238.29 223.16,202.64 225.6,200.95 250.41,236.6 "/>
   <polygon class="fil0" points="273.04,225.75 270.17,225.02 279.93,186.11 282.8,186.83 "/>
   <polygon class="fil0" points="276.18,185.53 187.93,131.75 189.47,129.22 277.72,183 "/>
   <polygon class="fil0" points="194.85,125.97 194.49,123.03 232.95,118.38 233.31,121.32 "/>
   <polygon class="fil0" points="241.69,80.1 219.57,41.24 222.15,39.78 244.27,78.64 "/>
   <polygon class="fil0" points="179.9,74.77 177.78,72.69 203.33,46.71 205.45,48.78 "/>
   <polygon class="fil0" points="196.58,33.34 160.98,29.77 161.27,26.83 196.87,30.39 "/>
   <polygon class="fil0" points="134.74,101.13 133.27,98.56 168.85,78.22 170.32,80.79 "/>
   <polygon class="fil0" points="145.33,24.45 125.23,13.48 126.65,10.88 146.75,21.85 "/>
   <polygon class="fil0" points="68.91,48.29 67.16,45.89 114.35,11.53 116.1,13.93 "/>
   <polygon class="fil0" points="16.08,124.7 13.53,123.18 29.61,96.29 32.15,97.81 "/>
   <polygon class="fil0" points="64.3,144.85 57.85,99.98 60.78,99.55 67.24,144.42 "/>
   <polygon class="fil0" points="17.93,175.08 16.42,172.53 55.82,149.17 57.33,151.72 "/>
   <polygon class="fil0" points="112.87,104.07 73.1,81.54 74.57,78.96 114.33,101.48 "/>
   <polygon class="fil0" points="119.89,85.77 112.74,61.2 115.59,60.37 122.74,84.94 "/>
   <polygon class="fil0" points="124.64,176.5 121.68,176.36 123.49,136.92 126.46,137.06 "/>
   <polygon class="fil0" points="60.1,233.19 58.9,230.48 93.29,215.25 94.49,217.96 "/>
   <polygon class="fil0" points="128.49,268.29 64.49,241.76 65.62,239.02 129.63,265.55 "/>
   <polygon class="fil0" points="139.03,265.59 137.17,263.28 204.21,209.3 206.07,211.61 "/>
   <path class="fil1" d="M23.59 170.76c2.23,4.76 0.18,10.41 -4.58,12.64 -4.75,2.23 -10.41,0.18 -12.64,-4.58 -2.23,-4.75 -0.18,-10.41 4.58,-12.64 4.75,-2.22 10.41,-0.18 12.64,4.58z"/>
   <path class="fil1" d="M18.41 135.48c-4.98,3.86 -12.15,2.95 -16.01,-2.03 -1.63,-2.1 -2.41,-4.59 -2.39,-7.06 0.02,-3.38 1.54,-6.72 4.42,-8.95 4.98,-3.86 12.15,-2.95 16.01,2.03 3.86,4.98 2.95,12.15 -2.03,16.01z"/>
   <path class="fil2" d="M301.26 264.33c-3.01,20.25 -21.86,34.22 -42.1,31.22 -20.25,-3.01 -34.22,-21.86 -31.21,-42.1 3,-20.25 21.85,-34.22 42.1,-31.21 17.84,2.65 30.81,17.6 31.58,34.96l0 3.36c-0.06,1.25 -0.18,2.51 -0.37,3.78z"/>
   <path class="fil3" d="M160.91 211.29c-3.01,20.25 -21.86,34.22 -42.1,31.21 -20.25,-3.01 -34.22,-21.85 -31.22,-42.1 3.01,-20.25 21.86,-34.22 42.1,-31.21 20.25,3.01 34.22,21.86 31.22,42.1z"/>
   <path class="fil4" d="M160.91 119.63c-3.01,20.25 -21.86,34.22 -42.1,31.21 -20.25,-3.01 -34.22,-21.86 -31.22,-42.1 3.01,-20.25 21.86,-34.22 42.1,-31.21 20.25,3.01 34.22,21.85 31.22,42.1z"/>
   <path class="fil5" d="M296.56 115.01c-3.01,20.25 -21.86,34.22 -42.1,31.21 -20.25,-3.01 -34.22,-21.86 -31.21,-42.1 3.01,-20.25 21.85,-34.22 42.1,-31.21 20.25,3.01 34.22,21.86 31.21,42.1z"/>
   <path class="fil1" d="M83.58 74.58c-3,20.25 -21.85,34.22 -42.1,31.21 -20.25,-3.01 -34.22,-21.86 -31.21,-42.1 3.01,-20.25 21.86,-34.22 42.1,-31.21 20.25,3.01 34.22,21.85 31.21,42.1z"/>
   <path class="fil2" d="M240.16 332.47c-2.02,13.64 -14.72,23.05 -28.36,21.03 -13.64,-2.02 -23.05,-14.72 -21.03,-28.36 2.03,-13.64 14.72,-23.06 28.36,-21.03 13.64,2.03 23.05,14.73 21.03,28.37z"/>
   <path class="fil2" d="M236.81 193.47c-1.86,12.54 -13.54,21.19 -26.07,19.33 -12.54,-1.86 -21.19,-13.54 -19.33,-26.07 1.86,-12.54 13.54,-21.19 26.07,-19.33 12.54,1.86 21.19,13.53 19.33,26.07z"/>
   <path class="fil5" d="M239.44 37.02c-1.86,12.54 -13.54,21.19 -26.07,19.33 -12.54,-1.86 -21.19,-13.54 -19.33,-26.08 1.86,-12.54 13.53,-21.19 26.07,-19.33 12.54,1.86 21.19,13.54 19.33,26.07z"/>
   <path class="fil3" d="M71.5 239.01c-1.86,12.54 -13.54,21.19 -26.07,19.33 -12.54,-1.86 -21.19,-13.53 -19.33,-26.07 1.86,-12.54 13.54,-21.19 26.07,-19.33 12.54,1.86 21.19,13.54 19.33,26.08z"/>
   <path class="fil2" d="M291.36 182.66c2.23,4.75 0.18,10.41 -4.58,12.64 -4.75,2.23 -10.41,0.18 -12.64,-4.58 -2.23,-4.75 -0.18,-10.41 4.58,-12.64 4.75,-2.22 10.41,-0.18 12.64,4.58z"/>
   <path class="fil5" d="M182.64 72.83c2.22,4.75 0.18,10.41 -4.58,12.63 -4.75,2.23 -10.41,0.18 -12.64,-4.58 -2.22,-4.75 -0.17,-10.41 4.58,-12.64 4.75,-2.22 10.41,-0.18 12.64,4.58z"/>
   <path class="fil4" d="M128.96 5.47c2.23,4.75 0.18,10.41 -4.58,12.64 -4.75,2.22 -10.41,0.17 -12.63,-4.58 -2.23,-4.75 -0.18,-10.41 4.58,-12.63 4.75,-2.22 10.41,-0.17 12.64,4.58z"/>
   <path class="fil3" d="M141.29 264.74c2.23,4.75 0.18,10.41 -4.58,12.64 -4.75,2.22 -10.41,0.18 -12.64,-4.58 -2.23,-4.75 -0.18,-10.41 4.58,-12.64 4.75,-2.22 10.41,-0.18 12.64,4.58z"/>
   <path class="fil4" d="M160.54 34.91c-4.98,3.86 -12.15,2.95 -16.01,-2.03 -3.86,-4.98 -2.95,-12.15 2.03,-16.01 4.98,-3.86 12.15,-2.95 16.01,2.03 3.86,4.98 2.95,12.15 -2.03,16.01z"/>
   <path class="fil2" d="M283.06 329.79c-0.77,5.19 -5.6,8.78 -10.8,8 -5.19,-0.77 -8.78,-5.6 -8,-10.79 0.77,-5.19 5.6,-8.78 10.8,-8 5.19,0.77 8.77,5.6 8,10.79z"/>
   <path class="fil2" d="M209.62 267.95c-1.21,8.18 -8.83,13.83 -17.01,12.61 -8.18,-1.21 -13.83,-8.83 -12.61,-17.01 1.21,-8.18 8.83,-13.83 17.01,-12.61 8.18,1.22 13.83,8.83 12.61,17.01z"/>
   <path class="fil1" d="M80.59 146.84c-1.22,8.18 -8.83,13.83 -17.01,12.61 -8.18,-1.22 -13.83,-8.83 -12.61,-17.01 1.21,-8.18 8.83,-13.83 17.01,-12.61 8.18,1.21 13.83,8.83 12.61,17.01z"/>
   <path class="fil5" d="M197.83 128.93c-1.21,8.18 -8.83,13.83 -17.01,12.61 -8.18,-1.21 -13.83,-8.83 -12.61,-17.01 1.21,-8.18 8.83,-13.83 17.01,-12.61 8.18,1.22 13.83,8.83 12.61,17.01z"/>
   <path class="fil4" d="M127.13 53.51c-0.21,8.27 -7.09,14.79 -15.36,14.58 -8.27,-0.21 -14.8,-7.09 -14.58,-15.36 0.22,-8.27 7.09,-14.79 15.36,-14.58 8.27,0.22 14.8,7.09 14.58,15.36z"/>
  </g>
 </g>
</svg>
