<svg xmlns="http://www.w3.org/2000/svg" width="84.93" height="64.693" viewBox="0 0 84.93 64.693"><g transform="translate(72.489 29.858)"><g transform="translate(0 0)"><path d="M446.953,241h-7.465a2.488,2.488,0,0,0,0,4.976h7.465a2.488,2.488,0,1,0,0-4.976Z" transform="translate(-437 -241)" fill="#41c796"/></g></g><g transform="translate(70.001 39.811)"><path d="M431.224,306.706l-4.976-4.976a2.488,2.488,0,1,0-3.519,3.519l4.976,4.976a2.488,2.488,0,0,0,3.519-3.519Z" transform="translate(-422 -301.001)" fill="#41c796"/></g><g transform="translate(70.001 14.929)"><path d="M431.223,151.73a2.488,2.488,0,0,0-3.519,0l-4.976,4.976a2.488,2.488,0,0,0,3.519,3.519l4.976-4.976A2.488,2.488,0,0,0,431.223,151.73Z" transform="translate(-422 -151.001)" fill="#41c796"/></g><g transform="translate(0 0)"><g transform="translate(0 0)"><path d="M57.56,61a7.476,7.476,0,0,0-7.381,6.351l-2.27,2.27a22.4,22.4,0,0,1-15.563,6.309H17.417a7.476,7.476,0,0,0-7.037,4.976H9.953a9.953,9.953,0,0,0,0,19.905h.428a7.5,7.5,0,0,0,4.548,4.548v12.869a7.465,7.465,0,1,0,14.929,0V105.787h2.488A22.4,22.4,0,0,1,47.909,112.1l2.27,2.27a7.465,7.465,0,0,0,14.846-1.114V68.465A7.473,7.473,0,0,0,57.56,61ZM9.953,95.835a4.976,4.976,0,0,1,0-9.953Zm14.929,22.394a2.488,2.488,0,1,1-4.976,0V105.787h4.976Zm4.976-17.417H17.417a2.491,2.491,0,0,1-2.488-2.488V83.394a2.491,2.491,0,0,1,2.488-2.488H29.858ZM50.1,107.338a27.2,27.2,0,0,0-15.277-6.414V80.792A27.194,27.194,0,0,0,50.1,74.379Zm9.953,5.914a2.491,2.491,0,0,1-2.488,2.488h0a2.491,2.491,0,0,1-2.488-2.488V68.465a2.488,2.488,0,1,1,4.976,0Z" transform="translate(0 -61)" fill="#41c796"/></g></g></svg>