<svg xmlns="http://www.w3.org/2000/svg" width="18.062" height="15.052" viewBox="0 0 18.062 15.052"><g transform="translate(0 -42.666)"><g transform="translate(0 42.666)"><g transform="translate(0 0)"><path d="M16.557,44.924H12.794v-.753a1.507,1.507,0,0,0-1.505-1.505H6.773a1.507,1.507,0,0,0-1.505,1.505v.753H1.505A1.507,1.507,0,0,0,0,46.429v2.258a1.507,1.507,0,0,0,1.505,1.505H7.526v-.376a.376.376,0,0,1,.376-.376H10.16a.376.376,0,0,1,.376.376v.376h6.021a1.507,1.507,0,0,0,1.505-1.505V46.429A1.507,1.507,0,0,0,16.557,44.924Zm-5.268,0H6.773v-.753h4.516Z" transform="translate(0 -42.666)" fill="#fff"/><path d="M17.853,266.423a.377.377,0,0,0-.395.037,1.486,1.486,0,0,1-.9.309H10.536V267.9a.376.376,0,0,1-.376.376H7.9a.376.376,0,0,1-.376-.376V266.77H1.505a1.486,1.486,0,0,1-.9-.309.376.376,0,0,0-.6.3v5.278a1.507,1.507,0,0,0,1.505,1.505H16.557a1.507,1.507,0,0,0,1.505-1.505V266.76A.376.376,0,0,0,17.853,266.423Z" transform="translate(0 -258.491)" fill="#fff"/></g></g></g></svg>