<svg xmlns="http://www.w3.org/2000/svg" width="54.115" height="49.003" viewBox="0 0 54.115 49.003">
  <path id="Icon_awesome-quote-left" data-name="Icon awesome-quote-left" d="M49.042,26.752H40.586v-7a6.892,6.892,0,0,1,6.764-7H48.2a2.576,2.576,0,0,0,2.537-2.625V4.875A2.576,2.576,0,0,0,48.2,2.25h-.846c-9.343,0-16.911,7.832-16.911,17.5V46a5.165,5.165,0,0,0,5.073,5.25H49.042A5.165,5.165,0,0,0,54.115,46V32A5.165,5.165,0,0,0,49.042,26.752Zm-30.44,0H10.147v-7a6.892,6.892,0,0,1,6.764-7h.846a2.576,2.576,0,0,0,2.537-2.625V4.875A2.576,2.576,0,0,0,17.757,2.25h-.846C7.568,2.25,0,10.082,0,19.751V46a5.165,5.165,0,0,0,5.073,5.25H18.6A5.165,5.165,0,0,0,23.675,46V32A5.165,5.165,0,0,0,18.6,26.752Z" transform="translate(0 -2.25)" fill="#fff" opacity="0.17"/>
</svg>
