<svg xmlns="http://www.w3.org/2000/svg" width="53.341" height="71.122" viewBox="0 0 53.341 71.122"><path d="M-1587.329,2052.123a1.483,1.483,0,0,1-1.015-.4,124.936,124.936,0,0,1-13.221-15.016,81.606,81.606,0,0,1-8.573-13.988c-2.562-5.486-3.861-10.548-3.861-15.045A26.7,26.7,0,0,1-1587.329,1981a26.7,26.7,0,0,1,26.671,26.671c0,4.5-1.3,9.559-3.861,15.045a81.624,81.624,0,0,1-8.573,13.988,125.006,125.006,0,0,1-13.22,15.016A1.484,1.484,0,0,1-1587.329,2052.123ZM-1587,1996a12.514,12.514,0,0,0-12.5,12.5A12.514,12.514,0,0,0-1587,2021a12.514,12.514,0,0,0,12.5-12.5A12.514,12.514,0,0,0-1587,1996Z" transform="translate(1614 -1981)" fill="#41c796"/></svg>