<svg xmlns="http://www.w3.org/2000/svg" width="53" height="45.861" viewBox="0 0 53 45.861">
  <g id="hospital" transform="translate(0 -26.184)">
    <g id="Group_130" data-name="Group 130" transform="translate(15.595 41.456)">
      <g id="Group_129" data-name="Group 129" transform="translate(0 0)">
        <path id="Path_36" data-name="Path 36" d="M134.586,144.3h-4.449v-4.449a1.625,1.625,0,0,0-1.614-1.636H122.1a1.625,1.625,0,0,0-1.625,1.625v4.449h-4.438A1.625,1.625,0,0,0,114.4,145.9v6.423a1.625,1.625,0,0,0,1.625,1.625h4.449v4.438a1.625,1.625,0,0,0,1.614,1.636H128.5a1.625,1.625,0,0,0,1.625-1.625h0v-4.449h4.449a1.625,1.625,0,0,0,1.636-1.614v-6.412A1.625,1.625,0,0,0,134.586,144.3Zm-.556,7.47h-4.984a1.091,1.091,0,0,0-1.091,1.091v4.984h-5.3v-4.984a1.091,1.091,0,0,0-1.091-1.091h-4.984v-5.289h4.984a1.091,1.091,0,0,0,1.091-1.091V140.4h5.289v4.984a1.091,1.091,0,0,0,1.091,1.091h4.995Z" transform="translate(-114.4 -138.216)" fill="#fff"/>
      </g>
    </g>
    <g id="Group_132" data-name="Group 132" transform="translate(0 26.184)">
      <g id="Group_131" data-name="Group 131" transform="translate(0 0)">
        <path id="Path_37" data-name="Path 37" d="M45.475,33.3H36.489V29.46a3.173,3.173,0,0,0-3.069-3.274q-.134,0-.268,0h-13.3a3.174,3.174,0,0,0-3.334,3q-.007.134,0,.268v3.817H7.525C4.057,33.277,0,35.251,0,40.8V64.521c0,5.551,4.057,7.525,7.525,7.525H45.475c3.468,0,7.525-1.974,7.525-7.525v-23.7C53,35.272,48.954,33.3,45.475,33.3ZM18.692,29.46a1.023,1.023,0,0,1,1.167-1.167H33.152c1.167,0,1.167.84,1.167,1.167v3.817H18.692ZM50.819,64.521c0,4.82-3.73,5.344-5.344,5.344H7.525c-1.6,0-5.344-.523-5.344-5.344v-23.7c0-4.82,3.73-5.344,5.344-5.344H45.475c1.6,0,5.344.523,5.344,5.344v23.7Z" transform="translate(0 -26.184)" fill="#fff"/>
      </g>
    </g>
  </g>
</svg>
